M48
; DRILL file {KiCad 7.0.11+dfsg-1build4} date Fri Jul 24 16:54:44 2026
; FORMAT={-:-/ absolute / metric / decimal}
; #@! TF.CreationDate,2026-07-24T16:54:44+00:00
; #@! TF.GenerationSoftware,Kicad,Pcbnew,7.0.11+dfsg-1build4
; #@! TF.FileFunction,Plated,1,2,PTH
FMAT,2
METRIC
; #@! TA.AperFunction,Plated,PTH,ViaDrill
T1C0.300
; #@! TA.AperFunction,Plated,PTH,ViaDrill
T2C0.350
; #@! TA.AperFunction,Plated,PTH,ComponentDrill
T3C0.600
; #@! TA.AperFunction,Plated,PTH,ComponentDrill
T4C0.750
; #@! TA.AperFunction,Plated,PTH,ComponentDrill
T5C1.000
%
G90
G05
T1
X104.3Y-100.7
X114.458Y-115.256
X114.749Y-126.334
X115.368Y-118.72
X118.78Y-126.701
X127.209Y-116.375
X131.011Y-117.876
X133.531Y-108.1
X134.637Y-110.932
T2
X108.89Y-115.703
X109.304Y-129.87
X109.412Y-125.989
X109.792Y-115.748
X110.895Y-126.786
X111.007Y-115.727
X112.751Y-110.877
X112.9Y-112.126
X113.583Y-122.794
X113.7Y-115.723
X113.7Y-123.934
X114.744Y-123.56
X114.973Y-120.17
X115.11Y-117.679
X115.24Y-121.419
X115.24Y-114.131
X115.3Y-112.147
X116.554Y-127.545
X116.554Y-131.312
X117.215Y-114.393
X118.541Y-118.601
X118.716Y-116.497
X120.146Y-115.128
X120.948Y-120.969
X121.971Y-116.497
X125.559Y-124.711
X125.559Y-133.282
X125.602Y-123.671
X127.225Y-117.775
X129.527Y-124.711
X130.568Y-107.239
X135.208Y-121.661
X135.4Y-107.335
X135.91Y-122.584
X136.734Y-120.996
X137.045Y-131.376
X138.533Y-121.451
X138.587Y-130.913
X138.644Y-123.381
X138.853Y-102.577
X139.056Y-128.569
X139.35Y-118.646
X139.643Y-109.838
X140.612Y-114.946
X142.536Y-111.793
X143.146Y-113.47
X143.225Y-119.634
X145.275Y-126.832
X146.152Y-126.048
X146.57Y-120.493
X146.866Y-122.703
X147.209Y-121.319
X147.785Y-122.802
X148.489Y-136.818
X149.345Y-119.741
X149.383Y-127.545
T4
X136.0Y-134.8
X138.0Y-134.8
X140.0Y-134.8
X151.0Y-121.0
X151.0Y-123.0
X151.0Y-125.0
X151.0Y-127.0
X152.5Y-112.0
X152.5Y-114.0
T5
X109.5Y-135.0
X112.04Y-135.0
X114.58Y-135.0
X117.12Y-135.0
X121.2Y-135.0
X123.74Y-135.0
X126.28Y-135.0
X128.82Y-135.0
X131.36Y-135.0
T3
X128.68Y-101.725G85X128.68Y-100.925
G05
X128.68Y-106.055G85X128.68Y-104.955
G05
X137.32Y-101.725G85X137.32Y-100.925
G05
X137.32Y-106.055G85X137.32Y-104.955
G05
M30
