%TF.GenerationSoftware,KiCad,Pcbnew,7.0.11+dfsg-1build4*%
%TF.CreationDate,2026-07-24T16:54:44+00:00*%
%TF.ProjectId,smart-register,736d6172-742d-4726-9567-69737465722e,rev?*%
%TF.SameCoordinates,Original*%
%TF.FileFunction,Copper,L2,Bot*%
%TF.FilePolarity,Positive*%
%FSLAX46Y46*%
G04 Gerber Fmt 4.6, Leading zero omitted, Abs format (unit mm)*
G04 Created by KiCad (PCBNEW 7.0.11+dfsg-1build4) date 2026-07-24 16:54:44*
%MOMM*%
%LPD*%
G01*
G04 APERTURE LIST*
G04 Aperture macros list*
%AMRoundRect*
0 Rectangle with rounded corners*
0 $1 Rounding radius*
0 $2 $3 $4 $5 $6 $7 $8 $9 X,Y pos of 4 corners*
0 Add a 4 corners polygon primitive as box body*
4,1,4,$2,$3,$4,$5,$6,$7,$8,$9,$2,$3,0*
0 Add four circle primitives for the rounded corners*
1,1,$1+$1,$2,$3*
1,1,$1+$1,$4,$5*
1,1,$1+$1,$6,$7*
1,1,$1+$1,$8,$9*
0 Add four rect primitives between the rounded corners*
20,1,$1+$1,$2,$3,$4,$5,0*
20,1,$1+$1,$4,$5,$6,$7,0*
20,1,$1+$1,$6,$7,$8,$9,0*
20,1,$1+$1,$8,$9,$2,$3,0*%
G04 Aperture macros list end*
%TA.AperFunction,ComponentPad*%
%ADD10RoundRect,0.250000X0.625000X-0.350000X0.625000X0.350000X-0.625000X0.350000X-0.625000X-0.350000X0*%
%TD*%
%TA.AperFunction,ComponentPad*%
%ADD11O,1.750000X1.200000*%
%TD*%
%TA.AperFunction,ComponentPad*%
%ADD12R,1.700000X1.700000*%
%TD*%
%TA.AperFunction,ComponentPad*%
%ADD13O,1.700000X1.700000*%
%TD*%
%TA.AperFunction,ComponentPad*%
%ADD14O,1.000000X2.100000*%
%TD*%
%TA.AperFunction,ComponentPad*%
%ADD15O,1.000000X1.800000*%
%TD*%
%TA.AperFunction,ComponentPad*%
%ADD16RoundRect,0.250000X-0.350000X-0.625000X0.350000X-0.625000X0.350000X0.625000X-0.350000X0.625000X0*%
%TD*%
%TA.AperFunction,ComponentPad*%
%ADD17O,1.200000X1.750000*%
%TD*%
%TA.AperFunction,SMDPad,CuDef*%
%ADD18RoundRect,0.225000X0.250000X-0.225000X0.250000X0.225000X-0.250000X0.225000X-0.250000X-0.225000X0*%
%TD*%
%TA.AperFunction,ViaPad*%
%ADD19C,0.600000*%
%TD*%
%TA.AperFunction,ViaPad*%
%ADD20C,0.700000*%
%TD*%
%TA.AperFunction,Conductor*%
%ADD21C,0.300000*%
%TD*%
%TA.AperFunction,Conductor*%
%ADD22C,0.200000*%
%TD*%
G04 APERTURE END LIST*
D10*
%TO.P,J2,1*%
%TO.N,VBAT_RAW*%
X152500000Y-114000000D03*
D11*
%TO.P,J2,2*%
%TO.N,GND*%
X152500000Y-112000000D03*
%TD*%
D10*
%TO.P,J3,1*%
%TO.N,MOT_A1*%
X151000000Y-127000000D03*
D11*
%TO.P,J3,2*%
%TO.N,MOT_A2*%
X151000000Y-125000000D03*
%TO.P,J3,3*%
%TO.N,MOT_B1*%
X151000000Y-123000000D03*
%TO.P,J3,4*%
%TO.N,MOT_B2*%
X151000000Y-121000000D03*
%TD*%
D12*
%TO.P,J5,1*%
%TO.N,3V3_SENS*%
X121200000Y-135000000D03*
D13*
%TO.P,J5,2*%
%TO.N,GND*%
X123740000Y-135000000D03*
%TO.P,J5,3*%
%TO.N,I2C_SDA*%
X126280000Y-135000000D03*
%TO.P,J5,4*%
%TO.N,I2C_SCL*%
X128820000Y-135000000D03*
%TO.P,J5,5*%
%TO.N,SENS_IRQ*%
X131360000Y-135000000D03*
%TD*%
D12*
%TO.P,J6,1*%
%TO.N,3V3*%
X109500000Y-135000000D03*
D13*
%TO.P,J6,2*%
%TO.N,UART_TX*%
X112040000Y-135000000D03*
%TO.P,J6,3*%
%TO.N,UART_RX*%
X114580000Y-135000000D03*
%TO.P,J6,4*%
%TO.N,GND*%
X117120000Y-135000000D03*
%TD*%
D14*
%TO.P,J1,S1*%
%TO.N,GND*%
X137320000Y-105505000D03*
D15*
X137320000Y-101325000D03*
D14*
X128680000Y-105505000D03*
D15*
X128680000Y-101325000D03*
%TD*%
D16*
%TO.P,J4,1*%
%TO.N,GND*%
X136000000Y-134800000D03*
D17*
%TO.P,J4,2*%
%TO.N,LIMIT_OPEN*%
X138000000Y-134800000D03*
%TO.P,J4,3*%
%TO.N,LIMIT_CLOSED*%
X140000000Y-134800000D03*
%TD*%
D18*
%TO.P,C10,1*%
%TO.N,VCP*%
X145500000Y-122275000D03*
%TO.P,C10,2*%
%TO.N,VMOT*%
X145500000Y-120725000D03*
%TD*%
D19*
%TO.N,GND*%
X104300500Y-100700500D03*
%TO.N,3V3*%
X131011100Y-117876300D03*
X127208800Y-116375500D03*
X118779700Y-126701000D03*
X114749400Y-126334000D03*
D20*
%TO.N,MOT_AIN1*%
X109412200Y-125988600D03*
X148489300Y-136818300D03*
%TO.N,MOT_AIN2*%
X146570100Y-120493400D03*
X113582800Y-122793800D03*
%TO.N,CHIP_EN*%
X116554500Y-127545000D03*
X149383300Y-127545000D03*
X110894600Y-126786200D03*
X116554500Y-131311900D03*
%TO.N,MOT_BIN1*%
X145275000Y-126832500D03*
X113700000Y-123934200D03*
%TO.N,MOT_BIN2*%
X114744000Y-123560300D03*
X146151900Y-126047700D03*
%TO.N,I2C_SDA*%
X125601900Y-123671200D03*
X115240000Y-121418600D03*
%TO.N,I2C_SCL*%
X129526900Y-124711000D03*
X125558900Y-124711000D03*
X114973200Y-120170400D03*
X125558900Y-133281700D03*
D19*
%TO.N,USB_DN*%
X114458400Y-115255600D03*
X133530900Y-108100100D03*
%TO.N,USB_DP*%
X134637500Y-110932400D03*
X115367700Y-118719700D03*
D20*
%TO.N,GPIO8_PU*%
X115110300Y-117678700D03*
X120947600Y-120968700D03*
%TO.N,BOOT*%
X117214700Y-114393100D03*
X138853100Y-102576900D03*
%TO.N,LIMIT_OPEN*%
X138586700Y-130913300D03*
X115240200Y-114130700D03*
%TO.N,LIMIT_CLOSED*%
X115300000Y-112147300D03*
%TO.N,LED_CTL*%
X109303700Y-129870100D03*
X112751300Y-110876700D03*
%TO.N,MOTOR_PWR_EN*%
X143146200Y-113470000D03*
X118540900Y-118601200D03*
X113700000Y-115723400D03*
%TO.N,LIMIT_SENSE_EN*%
X112900000Y-112125900D03*
X137045400Y-131376000D03*
%TO.N,SENS_IRQ*%
X111007500Y-115727300D03*
%TO.N,UART_RX*%
X109791800Y-115748100D03*
%TO.N,UART_TX*%
X108889900Y-115703300D03*
%TO.N,VBAT*%
X139642600Y-109838100D03*
X121971400Y-116497400D03*
X118716500Y-116497400D03*
%TO.N,NSLEEP*%
X139349500Y-118645700D03*
X139055600Y-128569400D03*
%TO.N,MOT_A1*%
X138532900Y-121451300D03*
%TO.N,MOT_A2*%
X135910400Y-122584000D03*
%TO.N,MOT_B2*%
X138644500Y-123381500D03*
%TO.N,MOT_B1*%
X135208500Y-121661500D03*
%TO.N,VCP*%
X147784800Y-122802100D03*
%TO.N,VMOT*%
X149344800Y-119741300D03*
X136734300Y-120995700D03*
X146865700Y-122703200D03*
%TO.N,VINT*%
X143225000Y-119633700D03*
X147209200Y-121318800D03*
%TO.N,SW_CT*%
X142536100Y-111792800D03*
X140612500Y-114945900D03*
%TO.N,3V3_SENS*%
X127225000Y-117775400D03*
X120145700Y-115127800D03*
%TO.N,VUSB*%
X130568000Y-107239300D03*
X135400000Y-107335300D03*
%TD*%
D21*
%TO.N,GND*%
X134554900Y-136245100D02*
X124384200Y-136245100D01*
X123740000Y-135000000D02*
X123139100Y-135000000D01*
X136000000Y-134800000D02*
X134554900Y-136245100D01*
X122538100Y-135000000D02*
X122538100Y-134098600D01*
X122223100Y-133783600D02*
X119538300Y-133783600D01*
X119538300Y-133783600D02*
X118321900Y-135000000D01*
X128680000Y-101325000D02*
X137320000Y-101325000D01*
X122538100Y-134098600D02*
X122223100Y-133783600D01*
X117120000Y-135000000D02*
X118321900Y-135000000D01*
X124384200Y-136245100D02*
X123139100Y-135000000D01*
X123139100Y-135000000D02*
X122538100Y-135000000D01*
D22*
%TO.N,3V3*%
X128709600Y-117876300D02*
X131011100Y-117876300D01*
X127208800Y-116375500D02*
X128709600Y-117876300D01*
X115116400Y-126701000D02*
X114749400Y-126334000D01*
X118779700Y-126701000D02*
X115116400Y-126701000D01*
D21*
%TO.N,MOT_AIN1*%
X113310000Y-131820200D02*
X113310000Y-135450700D01*
X114677600Y-136818300D02*
X148489300Y-136818300D01*
X113310000Y-135450700D02*
X114677600Y-136818300D01*
X109412200Y-127922400D02*
X113310000Y-131820200D01*
X109412200Y-125988600D02*
X109412200Y-127922400D01*
%TO.N,MOT_AIN2*%
X137051600Y-120268900D02*
X137494800Y-120712100D01*
X130450600Y-125426600D02*
X135608300Y-120268900D01*
X135608300Y-120268900D02*
X137051600Y-120268900D01*
X137494800Y-121410100D02*
X138262300Y-122177600D01*
X144925700Y-119905300D02*
X145982000Y-119905300D01*
X138262300Y-122177600D02*
X142653400Y-122177600D01*
X113582800Y-122793800D02*
X115096400Y-122793800D01*
X115862900Y-123560300D02*
X122191200Y-123560300D01*
X115096400Y-122793800D02*
X115862900Y-123560300D01*
X124057500Y-125426600D02*
X130450600Y-125426600D01*
X142653400Y-122177600D02*
X144925700Y-119905300D01*
X145982000Y-119905300D02*
X146570100Y-120493400D01*
X122191200Y-123560300D02*
X124057500Y-125426600D01*
X137494800Y-120712100D02*
X137494800Y-121410100D01*
%TO.N,CHIP_EN*%
X116554500Y-127545000D02*
X149383300Y-127545000D01*
X115420300Y-131311900D02*
X110894600Y-126786200D01*
X116554500Y-131311900D02*
X115420300Y-131311900D01*
%TO.N,MOT_BIN1*%
X121441800Y-125338900D02*
X122935400Y-126832500D01*
X122935400Y-126832500D02*
X145275000Y-126832500D01*
X113700000Y-123934200D02*
X115104700Y-125338900D01*
X115104700Y-125338900D02*
X121441800Y-125338900D01*
%TO.N,MOT_BIN2*%
X114744000Y-123560300D02*
X116020700Y-124837000D01*
X116020700Y-124837000D02*
X122550500Y-124837000D01*
X123761200Y-126047700D02*
X146151900Y-126047700D01*
X122550500Y-124837000D02*
X123761200Y-126047700D01*
%TO.N,I2C_SDA*%
X123601300Y-121670600D02*
X115909100Y-121670600D01*
X115909100Y-121670600D02*
X115657100Y-121418600D01*
X115657100Y-121418600D02*
X115240000Y-121418600D01*
X125601900Y-123671200D02*
X123601300Y-121670600D01*
%TO.N,I2C_SCL*%
X127618100Y-135000000D02*
X127618100Y-134626400D01*
X114533600Y-121714500D02*
X114533600Y-120610000D01*
X114533600Y-120610000D02*
X114973200Y-120170400D01*
X116175900Y-122647100D02*
X115674000Y-122145200D01*
X125558900Y-124711000D02*
X129526900Y-124711000D01*
X128820000Y-135000000D02*
X127618100Y-135000000D01*
X114964300Y-122145200D02*
X114533600Y-121714500D01*
X127618100Y-134626400D02*
X126273400Y-133281700D01*
X125558900Y-124711000D02*
X123495000Y-122647100D01*
X115674000Y-122145200D02*
X114964300Y-122145200D01*
X126273400Y-133281700D02*
X125558900Y-133281700D01*
X123495000Y-122647100D02*
X116175900Y-122647100D01*
D22*
%TO.N,USB_DN*%
X133530900Y-108100100D02*
X124675000Y-108100100D01*
X124675000Y-108100100D02*
X117519500Y-115255600D01*
X117519500Y-115255600D02*
X114458400Y-115255600D01*
%TO.N,USB_DP*%
X143302100Y-114238100D02*
X139384800Y-114238100D01*
X139384800Y-114238100D02*
X134368200Y-119254700D01*
X143801600Y-113203300D02*
X143801600Y-113738600D01*
X134368200Y-119254700D02*
X115902700Y-119254700D01*
X143801600Y-113738600D02*
X143302100Y-114238100D01*
X136149800Y-112444700D02*
X143043000Y-112444700D01*
X115902700Y-119254700D02*
X115367700Y-118719700D01*
X134637500Y-110932400D02*
X136149800Y-112444700D01*
X143043000Y-112444700D02*
X143801600Y-113203300D01*
D21*
%TO.N,GPIO8_PU*%
X114690400Y-118098600D02*
X114690400Y-118987300D01*
X114690400Y-118987300D02*
X115074800Y-119371700D01*
X115110300Y-117678700D02*
X114690400Y-118098600D01*
X116938300Y-120968700D02*
X120947600Y-120968700D01*
X115341300Y-119371700D02*
X116938300Y-120968700D01*
X115074800Y-119371700D02*
X115341300Y-119371700D01*
%TO.N,BOOT*%
X129030900Y-102576900D02*
X117214700Y-114393100D01*
X138853100Y-102576900D02*
X129030900Y-102576900D01*
%TO.N,LIMIT_OPEN*%
X112811600Y-115602100D02*
X114283000Y-114130700D01*
X114283000Y-114130700D02*
X115240200Y-114130700D01*
X112811600Y-125357800D02*
X112811600Y-115602100D01*
X138586700Y-130913300D02*
X135999600Y-128326200D01*
X115780000Y-128326200D02*
X112811600Y-125357800D01*
X135999600Y-128326200D02*
X115780000Y-128326200D01*
%TO.N,LIMIT_CLOSED*%
X112282200Y-115165100D02*
X115300000Y-112147300D01*
X140000000Y-133319900D02*
X135508200Y-128828100D01*
X115524600Y-128828100D02*
X112282200Y-125585700D01*
X112282200Y-125585700D02*
X112282200Y-115165100D01*
X135508200Y-128828100D02*
X115524600Y-128828100D01*
X140000000Y-134800000D02*
X140000000Y-133319900D01*
%TO.N,LED_CTL*%
X112751300Y-110876700D02*
X112723900Y-110876700D01*
X112723900Y-110876700D02*
X108155400Y-115445200D01*
X108155400Y-115445200D02*
X108155400Y-128721800D01*
X108155400Y-128721800D02*
X109303700Y-129870100D01*
%TO.N,MOTOR_PWR_EN*%
X113700000Y-115723400D02*
X114953400Y-116976800D01*
X118540900Y-118601200D02*
X134225000Y-118601200D01*
X114953400Y-116976800D02*
X116916500Y-116976800D01*
X139356200Y-113470000D02*
X143146200Y-113470000D01*
X134225000Y-118601200D02*
X139356200Y-113470000D01*
X116916500Y-116976800D02*
X118540900Y-118601200D01*
%TO.N,LIMIT_SENSE_EN*%
X111771800Y-125874800D02*
X111771800Y-113254100D01*
X111771800Y-113254100D02*
X112900000Y-112125900D01*
X115728900Y-129831900D02*
X111771800Y-125874800D01*
X135501300Y-129831900D02*
X115728900Y-129831900D01*
X137045400Y-131376000D02*
X135501300Y-129831900D01*
%TO.N,SENS_IRQ*%
X131360000Y-135000000D02*
X130158100Y-135000000D01*
X130158100Y-135000000D02*
X130158100Y-134624300D01*
X111007500Y-125836000D02*
X111007500Y-115727300D01*
X115505300Y-130333800D02*
X111007500Y-125836000D01*
X130158100Y-134624300D02*
X125867600Y-130333800D01*
X125867600Y-130333800D02*
X115505300Y-130333800D01*
%TO.N,UART_RX*%
X110114100Y-127736100D02*
X110114100Y-116070400D01*
X114580000Y-135000000D02*
X114580000Y-133798100D01*
X114580000Y-132202000D02*
X110114100Y-127736100D01*
X110114100Y-116070400D02*
X109791800Y-115748100D01*
X114580000Y-133798100D02*
X114580000Y-132202000D01*
%TO.N,UART_TX*%
X112040000Y-131613500D02*
X112040000Y-135000000D01*
X108701700Y-115891500D02*
X108701700Y-128275200D01*
X108701700Y-128275200D02*
X112040000Y-131613500D01*
X108889900Y-115703300D02*
X108701700Y-115891500D01*
%TO.N,VBAT*%
X119433700Y-116497400D02*
X118716500Y-116497400D01*
X124434800Y-109838100D02*
X119433700Y-114839200D01*
X139642600Y-109838100D02*
X124434800Y-109838100D01*
X119433700Y-114839200D02*
X119433700Y-116497400D01*
X119433700Y-116497400D02*
X121971400Y-116497400D01*
%TO.N,NSLEEP*%
X151313300Y-128569400D02*
X152782300Y-127100400D01*
X150783100Y-118399600D02*
X139595600Y-118399600D01*
X139595600Y-118399600D02*
X139349500Y-118645700D01*
X152782300Y-127100400D02*
X152782300Y-120398800D01*
X152782300Y-120398800D02*
X150783100Y-118399600D01*
X139055600Y-128569400D02*
X151313300Y-128569400D01*
%TO.N,MOT_A1*%
X152261300Y-120621800D02*
X152261300Y-125738700D01*
X150541000Y-118901500D02*
X152261300Y-120621800D01*
X141082700Y-118901500D02*
X150541000Y-118901500D01*
X138532900Y-121451300D02*
X141082700Y-118901500D01*
X152261300Y-125738700D02*
X151000000Y-127000000D01*
%TO.N,MOT_A2*%
X138326400Y-125000000D02*
X149773100Y-125000000D01*
X151000000Y-125000000D02*
X149773100Y-125000000D01*
X135910400Y-122584000D02*
X138326400Y-125000000D01*
%TO.N,MOT_B2*%
X148093000Y-123907000D02*
X150048100Y-121951900D01*
X138644500Y-123381500D02*
X139170000Y-123907000D01*
X151000000Y-121000000D02*
X151000000Y-121951900D01*
X150048100Y-121951900D02*
X151000000Y-121951900D01*
X139170000Y-123907000D02*
X148093000Y-123907000D01*
%TO.N,MOT_B1*%
X151000000Y-123000000D02*
X151000000Y-123951900D01*
X135980800Y-121661500D02*
X137942600Y-123623300D01*
X138679400Y-124408900D02*
X149010500Y-124408900D01*
X137942600Y-123623300D02*
X137942600Y-123672100D01*
X135208500Y-121661500D02*
X135980800Y-121661500D01*
X149010500Y-124408900D02*
X149467500Y-123951900D01*
X137942600Y-123672100D02*
X138679400Y-124408900D01*
X149467500Y-123951900D02*
X151000000Y-123951900D01*
%TO.N,VCP*%
X146493500Y-123405100D02*
X147181800Y-123405100D01*
X145500000Y-122411600D02*
X146493500Y-123405100D01*
X147181800Y-123405100D02*
X147784800Y-122802100D01*
X145500000Y-122275000D02*
X145500000Y-122411600D01*
%TO.N,VMOT*%
X136734300Y-121439300D02*
X137974500Y-122679500D01*
X147447200Y-122090700D02*
X149344700Y-120193200D01*
X143545500Y-122679500D02*
X145500000Y-120725000D01*
X146865700Y-122090700D02*
X145500000Y-120725000D01*
X146865700Y-122703200D02*
X146865700Y-122090700D01*
X149344700Y-120193200D02*
X149344700Y-119741300D01*
X136734300Y-120995700D02*
X136734300Y-121439300D01*
X137974500Y-122679500D02*
X143545500Y-122679500D01*
X146865700Y-122090700D02*
X147447200Y-122090700D01*
X149344700Y-119741300D02*
X149344800Y-119741300D01*
%TO.N,VINT*%
X147272100Y-120195600D02*
X147272100Y-121255900D01*
X143225000Y-119633700D02*
X143455300Y-119403400D01*
X143455300Y-119403400D02*
X146479900Y-119403400D01*
X147272100Y-121255900D02*
X147209200Y-121318800D01*
X146479900Y-119403400D02*
X147272100Y-120195600D01*
%TO.N,SW_CT*%
X143030100Y-111792800D02*
X142536100Y-111792800D01*
X143241900Y-114945900D02*
X144266100Y-113921700D01*
X144266100Y-113921700D02*
X144266100Y-113028800D01*
X140612500Y-114945900D02*
X143241900Y-114945900D01*
X144266100Y-113028800D02*
X143030100Y-111792800D01*
%TO.N,3V3_SENS*%
X120145700Y-115127900D02*
X120145700Y-115127800D01*
X124577500Y-115127900D02*
X120145700Y-115127900D01*
X127225000Y-117775400D02*
X124577500Y-115127900D01*
%TO.N,VUSB*%
X130664000Y-107335300D02*
X135400000Y-107335300D01*
X130568000Y-107239300D02*
X130664000Y-107335300D01*
%TD*%
%TA.AperFunction,Conductor*%
%TO.N,GND*%
G36*
X154266376Y-100319407D02*
G01*
X154302340Y-100368907D01*
X154302340Y-100430093D01*
X154285211Y-100461691D01*
X154283614Y-100463670D01*
X154117919Y-100668877D01*
X154117914Y-100668884D01*
X153964090Y-100918710D01*
X153843238Y-101186064D01*
X153843237Y-101186067D01*
X153757320Y-101466614D01*
X153707736Y-101755791D01*
X153704202Y-101838955D01*
X153682841Y-101896291D01*
X153654792Y-101920488D01*
X153488547Y-102016470D01*
X153488538Y-102016477D01*
X153278740Y-102183785D01*
X153096210Y-102380504D01*
X153096205Y-102380510D01*
X153096205Y-102380511D01*
X152945033Y-102602239D01*
X152945033Y-102602240D01*
X152945029Y-102602246D01*
X152828597Y-102844022D01*
X152749497Y-103100454D01*
X152749495Y-103100463D01*
X152709500Y-103365817D01*
X152709500Y-103634182D01*
X152749495Y-103899536D01*
X152749497Y-103899545D01*
X152828597Y-104155977D01*
X152894228Y-104292263D01*
X152945033Y-104397760D01*
X153096205Y-104619489D01*
X153096207Y-104619491D01*
X153096210Y-104619495D01*
X153278740Y-104816214D01*
X153488538Y-104983522D01*
X153488547Y-104983529D01*
X153587241Y-105040510D01*
X153720940Y-105117702D01*
X153720946Y-105117705D01*
X153720953Y-105117709D01*
X153970761Y-105215751D01*
X154232391Y-105275467D01*
X154304036Y-105280835D01*
X154432989Y-105290500D01*
X154432998Y-105290500D01*
X154567011Y-105290500D01*
X154687366Y-105281480D01*
X154767609Y-105275467D01*
X155029239Y-105215751D01*
X155279047Y-105117709D01*
X155511453Y-104983529D01*
X155721264Y-104816210D01*
X155903795Y-104619489D01*
X156054967Y-104397761D01*
X156077145Y-104351705D01*
X156119424Y-104307483D01*
X156162136Y-104295750D01*
X156244207Y-104292264D01*
X156533387Y-104242679D01*
X156813927Y-104156765D01*
X157081283Y-104035913D01*
X157331122Y-103882081D01*
X157538307Y-103714789D01*
X157595458Y-103692943D01*
X157654536Y-103708863D01*
X157692974Y-103756467D01*
X157699500Y-103791815D01*
X157699500Y-134208183D01*
X157680593Y-134266374D01*
X157631093Y-134302338D01*
X157569907Y-134302338D01*
X157538306Y-134285209D01*
X157402406Y-134175477D01*
X157331122Y-134117919D01*
X157331119Y-134117917D01*
X157331114Y-134117913D01*
X157081289Y-133964090D01*
X157081284Y-133964088D01*
X157081283Y-133964087D01*
X156928852Y-133895184D01*
X156813935Y-133843238D01*
X156813932Y-133843237D01*
X156813930Y-133843236D01*
X156813927Y-133843235D01*
X156550501Y-133762562D01*
X156533384Y-133757320D01*
X156533386Y-133757320D01*
X156244209Y-133707736D01*
X156162137Y-133704249D01*
X156104802Y-133682888D01*
X156077144Y-133648292D01*
X156054967Y-133602240D01*
X155903795Y-133380511D01*
X155881280Y-133356246D01*
X155746946Y-133211469D01*
X155721264Y-133183790D01*
X155721262Y-133183788D01*
X155721259Y-133183785D01*
X155511461Y-133016477D01*
X155511458Y-133016475D01*
X155511453Y-133016471D01*
X155481885Y-132999400D01*
X155279059Y-132882297D01*
X155279051Y-132882293D01*
X155279049Y-132882292D01*
X155279047Y-132882291D01*
X155029239Y-132784249D01*
X155029234Y-132784247D01*
X154767610Y-132724533D01*
X154767603Y-132724532D01*
X154567011Y-132709500D01*
X154567002Y-132709500D01*
X154432998Y-132709500D01*
X154432989Y-132709500D01*
X154232396Y-132724532D01*
X154232389Y-132724533D01*
X153970765Y-132784247D01*
X153720948Y-132882293D01*
X153720940Y-132882297D01*
X153488553Y-133016467D01*
X153488538Y-133016477D01*
X153278740Y-133183785D01*
X153096210Y-133380504D01*
X153096205Y-133380510D01*
X153096205Y-133380511D01*
X152945033Y-133602239D01*
X152945033Y-133602240D01*
X152945029Y-133602246D01*
X152828597Y-133844022D01*
X152749497Y-134100454D01*
X152749495Y-134100463D01*
X152709500Y-134365817D01*
X152709500Y-134634182D01*
X152749495Y-134899536D01*
X152749497Y-134899545D01*
X152828597Y-135155977D01*
X152921890Y-135349704D01*
X152945033Y-135397760D01*
X153096205Y-135619489D01*
X153096208Y-135619492D01*
X153096210Y-135619495D01*
X153173012Y-135702267D01*
X153264427Y-135800789D01*
X153278740Y-135816214D01*
X153478143Y-135975232D01*
X153488547Y-135983529D01*
X153507643Y-135994554D01*
X153654791Y-136079511D01*
X153695732Y-136124980D01*
X153704202Y-136161044D01*
X153707736Y-136244208D01*
X153757320Y-136533385D01*
X153843237Y-136813932D01*
X153843238Y-136813935D01*
X153910172Y-136962009D01*
X153962671Y-137078151D01*
X153964090Y-137081289D01*
X154117914Y-137331115D01*
X154117919Y-137331122D01*
X154285210Y-137538307D01*
X154307057Y-137595458D01*
X154291137Y-137654536D01*
X154243533Y-137692974D01*
X154208185Y-137699500D01*
X103791815Y-137699500D01*
X103733624Y-137680593D01*
X103697660Y-137631093D01*
X103697660Y-137569907D01*
X103714788Y-137538308D01*
X103882081Y-137331122D01*
X104035913Y-137081283D01*
X104156765Y-136813927D01*
X104242679Y-136533387D01*
X104292264Y-136244207D01*
X104295796Y-136161044D01*
X104317156Y-136103710D01*
X104345204Y-136079512D01*
X104511453Y-135983529D01*
X104654132Y-135869746D01*
X108449500Y-135869746D01*
X108449501Y-135869758D01*
X108461132Y-135928227D01*
X108461134Y-135928233D01*
X108505445Y-135994548D01*
X108505448Y-135994552D01*
X108571769Y-136038867D01*
X108615648Y-136047595D01*
X108630241Y-136050498D01*
X108630246Y-136050498D01*
X108630252Y-136050500D01*
X108630253Y-136050500D01*
X110369747Y-136050500D01*
X110369748Y-136050500D01*
X110428231Y-136038867D01*
X110494552Y-135994552D01*
X110538867Y-135928231D01*
X110550500Y-135869748D01*
X110550500Y-134130252D01*
X110548921Y-134122316D01*
X110547711Y-134116231D01*
X110538867Y-134071769D01*
X110494552Y-134005448D01*
X110478988Y-133995048D01*
X110428233Y-133961134D01*
X110428231Y-133961133D01*
X110428228Y-133961132D01*
X110428227Y-133961132D01*
X110369758Y-133949501D01*
X110369748Y-133949500D01*
X108630252Y-133949500D01*
X108630251Y-133949500D01*
X108630241Y-133949501D01*
X108571772Y-133961132D01*
X108571766Y-133961134D01*
X108505451Y-134005445D01*
X108505445Y-134005451D01*
X108461134Y-134071766D01*
X108461132Y-134071772D01*
X108449501Y-134130241D01*
X108449500Y-134130253D01*
X108449500Y-135869746D01*
X104654132Y-135869746D01*
X104721264Y-135816210D01*
X104903795Y-135619489D01*
X105054967Y-135397761D01*
X105171403Y-135155977D01*
X105250504Y-134899541D01*
X105290500Y-134634179D01*
X105290500Y-134365821D01*
X105250504Y-134100459D01*
X105171403Y-133844023D01*
X105054967Y-133602240D01*
X104903795Y-133380511D01*
X104881280Y-133356246D01*
X104746946Y-133211469D01*
X104721264Y-133183790D01*
X104721262Y-133183788D01*
X104721259Y-133183785D01*
X104511461Y-133016477D01*
X104511458Y-133016475D01*
X104511453Y-133016471D01*
X104481885Y-132999400D01*
X104279059Y-132882297D01*
X104279051Y-132882293D01*
X104279049Y-132882292D01*
X104279047Y-132882291D01*
X104029239Y-132784249D01*
X104029234Y-132784247D01*
X103767610Y-132724533D01*
X103767603Y-132724532D01*
X103567011Y-132709500D01*
X103567002Y-132709500D01*
X103432998Y-132709500D01*
X103432989Y-132709500D01*
X103232396Y-132724532D01*
X103232389Y-132724533D01*
X102970765Y-132784247D01*
X102720948Y-132882293D01*
X102720940Y-132882297D01*
X102488553Y-133016467D01*
X102488538Y-133016477D01*
X102278740Y-133183785D01*
X102096210Y-133380504D01*
X102096205Y-133380510D01*
X102096205Y-133380511D01*
X101974292Y-133559325D01*
X101945030Y-133602244D01*
X101922854Y-133648293D01*
X101880570Y-133692517D01*
X101837861Y-133704249D01*
X101755790Y-133707736D01*
X101466614Y-133757320D01*
X101268376Y-133818030D01*
X101186073Y-133843235D01*
X101186071Y-133843235D01*
X101186067Y-133843237D01*
X101186064Y-133843238D01*
X100918710Y-133964090D01*
X100668885Y-134117913D01*
X100461694Y-134285209D01*
X100404541Y-134307055D01*
X100345463Y-134291135D01*
X100307025Y-134243531D01*
X100300500Y-134208183D01*
X100300500Y-128707113D01*
X107800357Y-128707113D01*
X107804140Y-128737462D01*
X107804900Y-128749707D01*
X107804900Y-128750842D01*
X107808151Y-128770328D01*
X107808737Y-128774347D01*
X107813447Y-128812124D01*
X107814827Y-128823193D01*
X107816927Y-128830248D01*
X107819307Y-128837180D01*
X107842722Y-128880446D01*
X107844595Y-128884085D01*
X107866201Y-128928282D01*
X107870478Y-128934272D01*
X107874981Y-128940058D01*
X107911164Y-128973367D01*
X107914117Y-128976199D01*
X108720858Y-129782940D01*
X108748635Y-129837457D01*
X108749007Y-129865863D01*
X108748450Y-129870094D01*
X108748450Y-129870100D01*
X108767369Y-130013808D01*
X108767370Y-130013809D01*
X108822839Y-130147725D01*
X108911079Y-130262721D01*
X109026075Y-130350961D01*
X109159991Y-130406430D01*
X109303700Y-130425350D01*
X109447409Y-130406430D01*
X109581325Y-130350961D01*
X109696321Y-130262721D01*
X109784561Y-130147725D01*
X109813967Y-130076731D01*
X109853700Y-130030209D01*
X109913195Y-130015924D01*
X109969723Y-130039338D01*
X109975433Y-130044615D01*
X111660504Y-131729686D01*
X111688281Y-131784203D01*
X111689500Y-131799690D01*
X111689500Y-133936857D01*
X111670593Y-133995048D01*
X111637169Y-134024167D01*
X111453547Y-134122316D01*
X111293595Y-134253585D01*
X111293585Y-134253595D01*
X111162316Y-134413547D01*
X111064768Y-134596045D01*
X111004699Y-134794065D01*
X111004698Y-134794070D01*
X110984417Y-134999996D01*
X110984417Y-135000003D01*
X111004698Y-135205929D01*
X111004699Y-135205934D01*
X111064768Y-135403954D01*
X111162316Y-135586452D01*
X111259687Y-135705099D01*
X111293590Y-135746410D01*
X111293595Y-135746414D01*
X111453547Y-135877683D01*
X111453548Y-135877683D01*
X111453550Y-135877685D01*
X111636046Y-135975232D01*
X111773997Y-136017078D01*
X111834065Y-136035300D01*
X111834070Y-136035301D01*
X112039997Y-136055583D01*
X112040000Y-136055583D01*
X112040003Y-136055583D01*
X112245929Y-136035301D01*
X112245934Y-136035300D01*
X112443954Y-135975232D01*
X112626450Y-135877685D01*
X112786410Y-135746410D01*
X112859492Y-135657359D01*
X112863826Y-135652078D01*
X112915357Y-135619090D01*
X112976436Y-135622691D01*
X113014238Y-135652146D01*
X113015002Y-135651383D01*
X113015852Y-135652233D01*
X113017935Y-135655027D01*
X113020928Y-135657359D01*
X113025080Y-135663175D01*
X113029581Y-135668958D01*
X113065764Y-135702267D01*
X113068717Y-135705099D01*
X114396799Y-137033181D01*
X114409674Y-137049037D01*
X114416163Y-137058969D01*
X114440290Y-137077748D01*
X114449477Y-137085860D01*
X114450289Y-137086671D01*
X114450293Y-137086675D01*
X114466394Y-137098170D01*
X114469655Y-137100603D01*
X114508474Y-137130817D01*
X114514923Y-137134307D01*
X114521530Y-137137537D01*
X114521533Y-137137539D01*
X114521535Y-137137539D01*
X114521536Y-137137540D01*
X114568658Y-137151569D01*
X114572555Y-137152817D01*
X114592827Y-137159776D01*
X114619112Y-137168800D01*
X114619114Y-137168800D01*
X114626336Y-137170005D01*
X114633639Y-137170915D01*
X114633646Y-137170917D01*
X114682776Y-137168885D01*
X114686867Y-137168800D01*
X148015536Y-137168800D01*
X148073727Y-137187707D01*
X148094077Y-137207531D01*
X148096676Y-137210918D01*
X148096677Y-137210919D01*
X148096679Y-137210921D01*
X148211675Y-137299161D01*
X148345591Y-137354630D01*
X148489300Y-137373550D01*
X148633009Y-137354630D01*
X148766925Y-137299161D01*
X148881921Y-137210921D01*
X148970161Y-137095925D01*
X149025630Y-136962009D01*
X149044550Y-136818300D01*
X149025630Y-136674591D01*
X148970161Y-136540675D01*
X148881921Y-136425679D01*
X148766925Y-136337439D01*
X148766921Y-136337437D01*
X148633009Y-136281970D01*
X148633008Y-136281969D01*
X148489300Y-136263050D01*
X148345591Y-136281969D01*
X148345590Y-136281970D01*
X148211678Y-136337437D01*
X148211674Y-136337439D01*
X148096676Y-136425681D01*
X148094077Y-136429069D01*
X148043651Y-136463724D01*
X148015536Y-136467800D01*
X114863790Y-136467800D01*
X114805599Y-136448893D01*
X114793786Y-136438804D01*
X114573767Y-136218785D01*
X114545990Y-136164268D01*
X114555561Y-136103836D01*
X114598826Y-136060571D01*
X114634067Y-136050258D01*
X114785929Y-136035301D01*
X114785934Y-136035300D01*
X114983954Y-135975232D01*
X115166450Y-135877685D01*
X115176124Y-135869746D01*
X120149500Y-135869746D01*
X120149501Y-135869758D01*
X120161132Y-135928227D01*
X120161134Y-135928233D01*
X120205445Y-135994548D01*
X120205448Y-135994552D01*
X120271769Y-136038867D01*
X120315648Y-136047595D01*
X120330241Y-136050498D01*
X120330246Y-136050498D01*
X120330252Y-136050500D01*
X120330253Y-136050500D01*
X122069747Y-136050500D01*
X122069748Y-136050500D01*
X122128231Y-136038867D01*
X122194552Y-135994552D01*
X122238867Y-135928231D01*
X122250500Y-135869748D01*
X122250500Y-134130252D01*
X122248921Y-134122316D01*
X122247711Y-134116231D01*
X122238867Y-134071769D01*
X122194552Y-134005448D01*
X122178988Y-133995048D01*
X122128233Y-133961134D01*
X122128231Y-133961133D01*
X122128228Y-133961132D01*
X122128227Y-133961132D01*
X122069758Y-133949501D01*
X122069748Y-133949500D01*
X120330252Y-133949500D01*
X120330251Y-133949500D01*
X120330241Y-133949501D01*
X120271772Y-133961132D01*
X120271766Y-133961134D01*
X120205451Y-134005445D01*
X120205445Y-134005451D01*
X120161134Y-134071766D01*
X120161132Y-134071772D01*
X120149501Y-134130241D01*
X120149500Y-134130253D01*
X120149500Y-135869746D01*
X115176124Y-135869746D01*
X115326410Y-135746410D01*
X115457685Y-135586450D01*
X115555232Y-135403954D01*
X115615300Y-135205934D01*
X115615301Y-135205929D01*
X115635583Y-135000003D01*
X115635583Y-134999996D01*
X115615301Y-134794070D01*
X115615300Y-134794065D01*
X115597078Y-134733997D01*
X115555232Y-134596046D01*
X115457685Y-134413550D01*
X115456878Y-134412567D01*
X115326414Y-134253595D01*
X115326410Y-134253590D01*
X115271081Y-134208183D01*
X115166452Y-134122316D01*
X114982831Y-134024167D01*
X114940425Y-133980061D01*
X114930500Y-133936857D01*
X114930500Y-132248613D01*
X114932607Y-132228297D01*
X114935042Y-132216685D01*
X114931260Y-132186342D01*
X114930500Y-132174098D01*
X114930500Y-132172959D01*
X114929933Y-132169565D01*
X114927243Y-132153447D01*
X114926658Y-132149429D01*
X114920573Y-132100607D01*
X114920571Y-132100604D01*
X114918477Y-132093569D01*
X114916091Y-132086616D01*
X114892687Y-132043371D01*
X114890813Y-132039730D01*
X114869199Y-131995517D01*
X114864948Y-131989562D01*
X114860419Y-131983743D01*
X114860418Y-131983742D01*
X114824221Y-131950420D01*
X114821294Y-131947612D01*
X110493596Y-127619914D01*
X110465819Y-127565397D01*
X110464600Y-127549910D01*
X110464600Y-127350560D01*
X110483507Y-127292369D01*
X110533007Y-127256405D01*
X110594193Y-127256405D01*
X110613100Y-127264824D01*
X110616972Y-127267059D01*
X110616975Y-127267061D01*
X110750891Y-127322530D01*
X110894600Y-127341450D01*
X110898827Y-127340893D01*
X110958986Y-127352038D01*
X110981759Y-127369041D01*
X115139499Y-131526781D01*
X115152374Y-131542637D01*
X115158863Y-131552569D01*
X115182990Y-131571348D01*
X115192177Y-131579460D01*
X115192987Y-131580270D01*
X115192990Y-131580272D01*
X115192993Y-131580275D01*
X115209069Y-131591752D01*
X115212350Y-131594199D01*
X115251174Y-131624417D01*
X115251175Y-131624417D01*
X115251176Y-131624418D01*
X115257618Y-131627905D01*
X115264230Y-131631138D01*
X115284094Y-131637051D01*
X115311400Y-131645180D01*
X115315251Y-131646414D01*
X115361812Y-131662400D01*
X115361815Y-131662400D01*
X115369032Y-131663605D01*
X115376339Y-131664515D01*
X115376346Y-131664517D01*
X115425476Y-131662485D01*
X115429567Y-131662400D01*
X116080736Y-131662400D01*
X116138927Y-131681307D01*
X116159277Y-131701131D01*
X116161876Y-131704518D01*
X116161877Y-131704519D01*
X116161879Y-131704521D01*
X116276875Y-131792761D01*
X116410791Y-131848230D01*
X116554500Y-131867150D01*
X116698209Y-131848230D01*
X116832125Y-131792761D01*
X116947121Y-131704521D01*
X117035361Y-131589525D01*
X117090830Y-131455609D01*
X117109750Y-131311900D01*
X117108962Y-131305918D01*
X117090830Y-131168191D01*
X117035361Y-131034275D01*
X116947121Y-130919279D01*
X116872267Y-130861841D01*
X116837613Y-130811417D01*
X116839215Y-130750253D01*
X116876462Y-130701711D01*
X116932536Y-130684300D01*
X125681410Y-130684300D01*
X125739601Y-130703207D01*
X125751414Y-130713296D01*
X128819951Y-133781833D01*
X128847728Y-133836350D01*
X128838157Y-133896782D01*
X128794892Y-133940047D01*
X128759651Y-133950360D01*
X128614071Y-133964698D01*
X128614065Y-133964699D01*
X128416045Y-134024768D01*
X128233547Y-134122316D01*
X128073595Y-134253585D01*
X128073585Y-134253595D01*
X127992956Y-134351843D01*
X127941425Y-134384830D01*
X127880345Y-134381228D01*
X127846424Y-134359042D01*
X126554201Y-133066819D01*
X126541325Y-133050962D01*
X126534837Y-133041031D01*
X126510708Y-133022251D01*
X126501519Y-133014137D01*
X126500707Y-133013325D01*
X126484625Y-133001843D01*
X126481361Y-132999410D01*
X126442526Y-132969183D01*
X126442524Y-132969182D01*
X126436077Y-132965693D01*
X126429470Y-132962463D01*
X126429466Y-132962460D01*
X126382309Y-132948420D01*
X126378415Y-132947172D01*
X126331887Y-132931199D01*
X126324660Y-132929993D01*
X126317355Y-132929083D01*
X126317354Y-132929083D01*
X126317352Y-132929083D01*
X126268224Y-132931115D01*
X126264133Y-132931200D01*
X126032664Y-132931200D01*
X125974473Y-132912293D01*
X125954123Y-132892469D01*
X125951523Y-132889081D01*
X125951521Y-132889080D01*
X125951521Y-132889079D01*
X125836525Y-132800839D01*
X125836521Y-132800837D01*
X125702609Y-132745370D01*
X125702608Y-132745369D01*
X125558900Y-132726450D01*
X125415191Y-132745369D01*
X125415190Y-132745370D01*
X125281278Y-132800837D01*
X125281274Y-132800839D01*
X125166281Y-132889077D01*
X125166277Y-132889081D01*
X125078039Y-133004074D01*
X125078037Y-133004078D01*
X125022570Y-133137990D01*
X125022569Y-133137991D01*
X125003650Y-133281699D01*
X125003650Y-133281700D01*
X125022569Y-133425408D01*
X125022570Y-133425409D01*
X125055988Y-133506090D01*
X125078039Y-133559325D01*
X125166279Y-133674321D01*
X125281275Y-133762561D01*
X125415191Y-133818030D01*
X125558900Y-133836950D01*
X125702609Y-133818030D01*
X125836525Y-133762561D01*
X125951521Y-133674321D01*
X125952285Y-133673324D01*
X125954123Y-133670931D01*
X126004549Y-133636276D01*
X126032664Y-133632200D01*
X126087210Y-133632200D01*
X126145401Y-133651107D01*
X126157214Y-133661196D01*
X126278039Y-133782021D01*
X126305816Y-133836538D01*
X126296245Y-133896970D01*
X126252980Y-133940235D01*
X126217739Y-133950548D01*
X126074071Y-133964698D01*
X126074065Y-133964699D01*
X125876045Y-134024768D01*
X125693547Y-134122316D01*
X125533595Y-134253585D01*
X125533585Y-134253595D01*
X125402316Y-134413547D01*
X125304768Y-134596045D01*
X125244699Y-134794065D01*
X125244698Y-134794070D01*
X125224417Y-134999996D01*
X125224417Y-135000003D01*
X125244698Y-135205929D01*
X125244699Y-135205934D01*
X125304768Y-135403954D01*
X125402316Y-135586452D01*
X125499687Y-135705099D01*
X125533590Y-135746410D01*
X125533595Y-135746414D01*
X125693547Y-135877683D01*
X125693548Y-135877683D01*
X125693550Y-135877685D01*
X125876046Y-135975232D01*
X126013997Y-136017078D01*
X126074065Y-136035300D01*
X126074070Y-136035301D01*
X126279997Y-136055583D01*
X126280000Y-136055583D01*
X126280003Y-136055583D01*
X126485929Y-136035301D01*
X126485934Y-136035300D01*
X126683954Y-135975232D01*
X126866450Y-135877685D01*
X127026410Y-135746410D01*
X127157685Y-135586450D01*
X127255232Y-135403954D01*
X127271726Y-135349578D01*
X127306710Y-135299382D01*
X127364518Y-135279335D01*
X127420613Y-135295438D01*
X127423740Y-135297481D01*
X127423741Y-135297481D01*
X127423744Y-135297484D01*
X127425997Y-135298472D01*
X127447034Y-135311007D01*
X127448974Y-135312517D01*
X127486715Y-135325473D01*
X127494299Y-135328432D01*
X127530868Y-135344473D01*
X127533316Y-135344675D01*
X127557292Y-135349704D01*
X127559606Y-135350498D01*
X127559612Y-135350500D01*
X127599514Y-135350500D01*
X127607688Y-135350838D01*
X127647444Y-135354132D01*
X127649821Y-135353529D01*
X127674125Y-135350500D01*
X127756858Y-135350500D01*
X127815049Y-135369407D01*
X127844168Y-135402831D01*
X127844767Y-135403952D01*
X127844768Y-135403954D01*
X127896885Y-135501457D01*
X127942316Y-135586452D01*
X128039687Y-135705099D01*
X128073590Y-135746410D01*
X128073595Y-135746414D01*
X128233547Y-135877683D01*
X128233548Y-135877683D01*
X128233550Y-135877685D01*
X128416046Y-135975232D01*
X128553997Y-136017078D01*
X128614065Y-136035300D01*
X128614070Y-136035301D01*
X128819997Y-136055583D01*
X128820000Y-136055583D01*
X128820003Y-136055583D01*
X129025929Y-136035301D01*
X129025934Y-136035300D01*
X129223954Y-135975232D01*
X129406450Y-135877685D01*
X129566410Y-135746410D01*
X129697685Y-135586450D01*
X129795232Y-135403954D01*
X129811726Y-135349578D01*
X129846710Y-135299382D01*
X129904518Y-135279335D01*
X129960613Y-135295438D01*
X129963740Y-135297481D01*
X129963741Y-135297481D01*
X129963744Y-135297484D01*
X129965997Y-135298472D01*
X129987034Y-135311007D01*
X129988974Y-135312517D01*
X130026715Y-135325473D01*
X130034299Y-135328432D01*
X130070868Y-135344473D01*
X130073316Y-135344675D01*
X130097292Y-135349704D01*
X130099606Y-135350498D01*
X130099612Y-135350500D01*
X130139514Y-135350500D01*
X130147688Y-135350838D01*
X130187444Y-135354132D01*
X130189821Y-135353529D01*
X130214125Y-135350500D01*
X130296858Y-135350500D01*
X130355049Y-135369407D01*
X130384168Y-135402831D01*
X130384767Y-135403952D01*
X130384768Y-135403954D01*
X130436885Y-135501457D01*
X130482316Y-135586452D01*
X130579687Y-135705099D01*
X130613590Y-135746410D01*
X130613595Y-135746414D01*
X130773547Y-135877683D01*
X130773548Y-135877683D01*
X130773550Y-135877685D01*
X130956046Y-135975232D01*
X131093997Y-136017078D01*
X131154065Y-136035300D01*
X131154070Y-136035301D01*
X131359997Y-136055583D01*
X131360000Y-136055583D01*
X131360003Y-136055583D01*
X131565929Y-136035301D01*
X131565934Y-136035300D01*
X131763954Y-135975232D01*
X131946450Y-135877685D01*
X132106410Y-135746410D01*
X132237685Y-135586450D01*
X132335232Y-135403954D01*
X132395300Y-135205934D01*
X132395301Y-135205929D01*
X132403767Y-135119970D01*
X137199500Y-135119970D01*
X137214630Y-135254249D01*
X137214633Y-135254261D01*
X137274211Y-135424522D01*
X137274211Y-135424523D01*
X137370181Y-135577258D01*
X137370184Y-135577262D01*
X137497738Y-135704816D01*
X137497740Y-135704817D01*
X137497741Y-135704818D01*
X137570653Y-135750632D01*
X137650478Y-135800789D01*
X137694549Y-135816210D01*
X137820738Y-135860366D01*
X137820742Y-135860367D01*
X137820745Y-135860368D01*
X138000000Y-135880565D01*
X138179255Y-135860368D01*
X138349522Y-135800789D01*
X138502262Y-135704816D01*
X138629816Y-135577262D01*
X138725789Y-135424522D01*
X138785368Y-135254255D01*
X138789424Y-135218258D01*
X138800499Y-135119970D01*
X138800500Y-135119953D01*
X138800500Y-134480046D01*
X138800499Y-134480029D01*
X138785369Y-134345750D01*
X138785366Y-134345738D01*
X138753123Y-134253595D01*
X138725789Y-134175478D01*
X138692384Y-134122315D01*
X138629818Y-134022741D01*
X138629817Y-134022740D01*
X138629816Y-134022738D01*
X138502262Y-133895184D01*
X138502259Y-133895182D01*
X138502258Y-133895181D01*
X138349523Y-133799211D01*
X138179261Y-133739633D01*
X138179257Y-133739632D01*
X138000000Y-133719435D01*
X137820742Y-133739632D01*
X137820738Y-133739633D01*
X137650477Y-133799211D01*
X137650476Y-133799211D01*
X137497741Y-133895181D01*
X137370181Y-134022741D01*
X137274211Y-134175476D01*
X137274211Y-134175477D01*
X137214633Y-134345738D01*
X137214630Y-134345750D01*
X137199500Y-134480029D01*
X137199500Y-135119970D01*
X132403767Y-135119970D01*
X132415583Y-135000003D01*
X132415583Y-134999996D01*
X132395301Y-134794070D01*
X132395300Y-134794065D01*
X132377078Y-134733997D01*
X132335232Y-134596046D01*
X132237685Y-134413550D01*
X132236878Y-134412567D01*
X132106414Y-134253595D01*
X132106410Y-134253590D01*
X132051081Y-134208183D01*
X131946452Y-134122316D01*
X131763954Y-134024768D01*
X131565934Y-133964699D01*
X131565929Y-133964698D01*
X131360003Y-133944417D01*
X131359997Y-133944417D01*
X131154070Y-133964698D01*
X131154065Y-133964699D01*
X130956045Y-134024768D01*
X130773547Y-134122316D01*
X130613595Y-134253585D01*
X130613585Y-134253595D01*
X130533902Y-134350689D01*
X130482370Y-134383676D01*
X130421291Y-134380074D01*
X130387370Y-134357888D01*
X126380886Y-130351404D01*
X126353109Y-130296887D01*
X126362680Y-130236455D01*
X126405945Y-130193190D01*
X126450890Y-130182400D01*
X135315110Y-130182400D01*
X135373301Y-130201307D01*
X135385114Y-130211396D01*
X136462558Y-131288840D01*
X136490335Y-131343357D01*
X136490707Y-131371763D01*
X136490150Y-131375994D01*
X136490150Y-131376000D01*
X136509069Y-131519708D01*
X136509070Y-131519709D01*
X136562973Y-131649846D01*
X136564539Y-131653625D01*
X136652779Y-131768621D01*
X136767775Y-131856861D01*
X136901691Y-131912330D01*
X137045400Y-131931250D01*
X137189109Y-131912330D01*
X137323025Y-131856861D01*
X137438021Y-131768621D01*
X137526261Y-131653625D01*
X137560879Y-131570047D01*
X137600615Y-131523522D01*
X137660110Y-131509238D01*
X137716638Y-131532652D01*
X137722347Y-131537929D01*
X139620504Y-133436086D01*
X139648281Y-133490603D01*
X139649500Y-133506090D01*
X139649500Y-133745109D01*
X139630593Y-133803300D01*
X139603172Y-133828934D01*
X139497743Y-133895179D01*
X139370181Y-134022741D01*
X139274211Y-134175476D01*
X139274211Y-134175477D01*
X139214633Y-134345738D01*
X139214630Y-134345750D01*
X139199500Y-134480029D01*
X139199500Y-135119970D01*
X139214630Y-135254249D01*
X139214633Y-135254261D01*
X139274211Y-135424522D01*
X139274211Y-135424523D01*
X139370181Y-135577258D01*
X139370184Y-135577262D01*
X139497738Y-135704816D01*
X139497740Y-135704817D01*
X139497741Y-135704818D01*
X139570653Y-135750632D01*
X139650478Y-135800789D01*
X139694549Y-135816210D01*
X139820738Y-135860366D01*
X139820742Y-135860367D01*
X139820745Y-135860368D01*
X140000000Y-135880565D01*
X140179255Y-135860368D01*
X140349522Y-135800789D01*
X140502262Y-135704816D01*
X140629816Y-135577262D01*
X140725789Y-135424522D01*
X140785368Y-135254255D01*
X140789424Y-135218258D01*
X140800499Y-135119970D01*
X140800500Y-135119953D01*
X140800500Y-134480046D01*
X140800499Y-134480029D01*
X140785369Y-134345750D01*
X140785366Y-134345738D01*
X140753123Y-134253595D01*
X140725789Y-134175478D01*
X140692384Y-134122315D01*
X140629818Y-134022741D01*
X140629817Y-134022740D01*
X140629816Y-134022738D01*
X140502262Y-133895184D01*
X140502259Y-133895182D01*
X140502256Y-133895179D01*
X140396828Y-133828934D01*
X140357616Y-133781966D01*
X140350500Y-133745109D01*
X140350500Y-133366513D01*
X140352607Y-133346197D01*
X140355042Y-133334585D01*
X140351260Y-133304242D01*
X140350500Y-133291998D01*
X140350500Y-133290859D01*
X140348971Y-133281699D01*
X140347243Y-133271347D01*
X140346658Y-133267329D01*
X140340573Y-133218507D01*
X140340571Y-133218504D01*
X140338477Y-133211469D01*
X140336091Y-133204516D01*
X140312687Y-133161271D01*
X140310813Y-133157630D01*
X140289199Y-133113417D01*
X140284948Y-133107462D01*
X140280419Y-133101643D01*
X140280418Y-133101642D01*
X140244221Y-133068320D01*
X140241294Y-133065512D01*
X138760932Y-131585150D01*
X138733155Y-131530633D01*
X138742726Y-131470201D01*
X138785991Y-131426936D01*
X138793013Y-131423698D01*
X138864325Y-131394161D01*
X138979321Y-131305921D01*
X139067561Y-131190925D01*
X139123030Y-131057009D01*
X139141950Y-130913300D01*
X139130381Y-130825430D01*
X139123030Y-130769591D01*
X139067561Y-130635675D01*
X138979321Y-130520679D01*
X138864325Y-130432439D01*
X138864321Y-130432437D01*
X138730409Y-130376970D01*
X138730408Y-130376969D01*
X138586700Y-130358050D01*
X138586695Y-130358050D01*
X138582463Y-130358607D01*
X138522303Y-130347455D01*
X138499540Y-130330458D01*
X136280401Y-128111319D01*
X136267525Y-128095462D01*
X136263001Y-128088538D01*
X136261037Y-128085531D01*
X136244454Y-128072624D01*
X136210148Y-128021963D01*
X136212170Y-127960811D01*
X136249751Y-127912527D01*
X136305262Y-127895500D01*
X138746306Y-127895500D01*
X138804497Y-127914407D01*
X138840461Y-127963907D01*
X138840461Y-128025093D01*
X138804497Y-128074593D01*
X138784192Y-128085964D01*
X138777975Y-128088538D01*
X138777974Y-128088539D01*
X138662981Y-128176777D01*
X138662977Y-128176781D01*
X138574739Y-128291774D01*
X138574737Y-128291778D01*
X138519270Y-128425690D01*
X138519269Y-128425691D01*
X138500350Y-128569399D01*
X138500350Y-128569400D01*
X138519269Y-128713108D01*
X138519270Y-128713109D01*
X138570661Y-128837181D01*
X138574739Y-128847025D01*
X138662979Y-128962021D01*
X138777975Y-129050261D01*
X138911891Y-129105730D01*
X139055600Y-129124650D01*
X139199309Y-129105730D01*
X139333225Y-129050261D01*
X139448221Y-128962021D01*
X139448985Y-128961024D01*
X139450823Y-128958631D01*
X139501249Y-128923976D01*
X139529364Y-128919900D01*
X151266681Y-128919900D01*
X151286996Y-128922007D01*
X151288906Y-128922407D01*
X151298615Y-128924443D01*
X151328962Y-128920659D01*
X151341207Y-128919900D01*
X151342343Y-128919900D01*
X151361821Y-128916649D01*
X151365852Y-128916061D01*
X151414693Y-128909973D01*
X151414696Y-128909971D01*
X151421729Y-128907877D01*
X151428675Y-128905492D01*
X151428681Y-128905492D01*
X151471955Y-128882071D01*
X151475579Y-128880207D01*
X151519782Y-128858599D01*
X151519782Y-128858598D01*
X151519784Y-128858598D01*
X151519785Y-128858596D01*
X151525770Y-128854323D01*
X151531555Y-128849820D01*
X151531555Y-128849819D01*
X151531558Y-128849818D01*
X151564879Y-128813620D01*
X151567664Y-128810716D01*
X152997184Y-127381196D01*
X153013034Y-127368326D01*
X153022969Y-127361837D01*
X153041751Y-127337703D01*
X153049877Y-127328504D01*
X153050676Y-127327706D01*
X153062175Y-127311598D01*
X153064609Y-127308336D01*
X153094817Y-127269526D01*
X153094818Y-127269522D01*
X153098322Y-127263050D01*
X153101537Y-127256471D01*
X153101537Y-127256469D01*
X153101540Y-127256466D01*
X153115587Y-127209281D01*
X153116812Y-127205454D01*
X153132800Y-127158888D01*
X153132800Y-127158883D01*
X153134007Y-127151651D01*
X153134917Y-127144355D01*
X153132885Y-127095213D01*
X153132800Y-127091123D01*
X153132800Y-120445418D01*
X153134907Y-120425102D01*
X153135705Y-120421297D01*
X153137343Y-120413485D01*
X153133560Y-120383136D01*
X153132800Y-120370892D01*
X153132800Y-120369759D01*
X153129549Y-120350278D01*
X153128959Y-120346230D01*
X153124955Y-120314108D01*
X153122873Y-120297407D01*
X153122872Y-120297405D01*
X153122872Y-120297403D01*
X153120779Y-120290375D01*
X153118392Y-120283422D01*
X153118392Y-120283419D01*
X153094964Y-120240128D01*
X153093111Y-120236527D01*
X153071498Y-120192317D01*
X153071495Y-120192314D01*
X153067216Y-120186321D01*
X153062720Y-120180545D01*
X153062719Y-120180544D01*
X153062718Y-120180542D01*
X153026509Y-120147209D01*
X153023582Y-120144401D01*
X151063901Y-118184719D01*
X151051025Y-118168862D01*
X151048395Y-118164837D01*
X151044537Y-118158931D01*
X151020404Y-118140148D01*
X151011219Y-118132037D01*
X151010407Y-118131225D01*
X150994325Y-118119743D01*
X150991061Y-118117310D01*
X150952226Y-118087083D01*
X150952224Y-118087082D01*
X150945777Y-118083593D01*
X150939170Y-118080363D01*
X150939166Y-118080360D01*
X150892009Y-118066320D01*
X150888115Y-118065072D01*
X150841587Y-118049099D01*
X150834360Y-118047893D01*
X150827055Y-118046983D01*
X150827054Y-118046983D01*
X150827052Y-118046983D01*
X150777924Y-118049015D01*
X150773833Y-118049100D01*
X139642219Y-118049100D01*
X139621904Y-118046993D01*
X139610285Y-118044557D01*
X139586396Y-118047535D01*
X139579938Y-118048340D01*
X139567693Y-118049100D01*
X139566560Y-118049100D01*
X139547070Y-118052351D01*
X139543031Y-118052939D01*
X139494207Y-118059026D01*
X139487181Y-118061117D01*
X139480220Y-118063507D01*
X139442820Y-118083747D01*
X139382781Y-118094831D01*
X139349502Y-118090450D01*
X139349500Y-118090450D01*
X139205791Y-118109369D01*
X139205790Y-118109370D01*
X139071878Y-118164837D01*
X139071874Y-118164839D01*
X138956881Y-118253077D01*
X138956877Y-118253081D01*
X138868639Y-118368074D01*
X138868637Y-118368078D01*
X138813170Y-118501990D01*
X138813169Y-118501991D01*
X138794250Y-118645699D01*
X138794250Y-118645700D01*
X138813169Y-118789408D01*
X138813170Y-118789409D01*
X138866890Y-118919104D01*
X138868639Y-118923325D01*
X138956879Y-119038321D01*
X139071875Y-119126561D01*
X139205791Y-119182030D01*
X139349500Y-119200950D01*
X139493209Y-119182030D01*
X139627125Y-119126561D01*
X139742121Y-119038321D01*
X139830361Y-118923325D01*
X139870974Y-118825275D01*
X139876798Y-118811215D01*
X139916534Y-118764689D01*
X139968262Y-118750100D01*
X140499411Y-118750100D01*
X140557602Y-118769007D01*
X140593566Y-118818507D01*
X140593566Y-118879693D01*
X140569415Y-118919104D01*
X138620059Y-120868458D01*
X138565542Y-120896235D01*
X138537135Y-120896607D01*
X138532904Y-120896050D01*
X138532900Y-120896050D01*
X138389191Y-120914969D01*
X138389190Y-120914970D01*
X138255278Y-120970437D01*
X138255274Y-120970439D01*
X138140281Y-121058677D01*
X138140277Y-121058681D01*
X138052039Y-121173674D01*
X138052038Y-121173675D01*
X138035764Y-121212967D01*
X137996027Y-121259492D01*
X137936533Y-121273776D01*
X137880005Y-121250361D01*
X137848035Y-121198192D01*
X137845300Y-121175081D01*
X137845300Y-120758713D01*
X137847407Y-120738397D01*
X137848380Y-120733757D01*
X137849842Y-120726785D01*
X137846060Y-120696442D01*
X137845300Y-120684198D01*
X137845300Y-120683059D01*
X137843318Y-120671186D01*
X137842043Y-120663547D01*
X137841458Y-120659529D01*
X137840428Y-120651262D01*
X137835373Y-120610707D01*
X137835371Y-120610704D01*
X137833277Y-120603669D01*
X137830891Y-120596716D01*
X137807487Y-120553471D01*
X137805613Y-120549830D01*
X137783999Y-120505617D01*
X137779748Y-120499662D01*
X137775219Y-120493843D01*
X137768695Y-120487837D01*
X137739021Y-120460520D01*
X137736094Y-120457712D01*
X137332401Y-120054019D01*
X137319525Y-120038162D01*
X137313037Y-120028231D01*
X137301086Y-120018929D01*
X137288904Y-120009448D01*
X137279719Y-120001337D01*
X137278907Y-120000525D01*
X137262825Y-119989043D01*
X137259561Y-119986610D01*
X137220726Y-119956383D01*
X137220724Y-119956382D01*
X137214277Y-119952893D01*
X137207670Y-119949663D01*
X137207666Y-119949660D01*
X137160509Y-119935620D01*
X137156615Y-119934372D01*
X137110087Y-119918399D01*
X137102860Y-119917193D01*
X137095555Y-119916283D01*
X137095554Y-119916283D01*
X137095552Y-119916283D01*
X137046424Y-119918315D01*
X137042333Y-119918400D01*
X135654913Y-119918400D01*
X135634598Y-119916293D01*
X135622985Y-119913858D01*
X135592643Y-119917640D01*
X135580399Y-119918400D01*
X135579259Y-119918400D01*
X135559781Y-119921650D01*
X135555736Y-119922239D01*
X135506908Y-119928326D01*
X135499875Y-119930419D01*
X135492916Y-119932808D01*
X135449661Y-119956217D01*
X135446024Y-119958089D01*
X135401820Y-119979699D01*
X135395842Y-119983966D01*
X135390044Y-119988480D01*
X135390042Y-119988481D01*
X135390042Y-119988482D01*
X135385837Y-119993048D01*
X135356731Y-120024665D01*
X135353901Y-120027615D01*
X130334414Y-125047104D01*
X130279897Y-125074881D01*
X130264410Y-125076100D01*
X130119691Y-125076100D01*
X130061500Y-125057193D01*
X130025536Y-125007693D01*
X130025536Y-124946507D01*
X130028227Y-124939215D01*
X130030244Y-124934345D01*
X130063230Y-124854709D01*
X130082150Y-124711000D01*
X130063230Y-124567291D01*
X130007761Y-124433375D01*
X129919521Y-124318379D01*
X129804525Y-124230139D01*
X129804521Y-124230137D01*
X129670609Y-124174670D01*
X129670608Y-124174669D01*
X129526900Y-124155750D01*
X129383191Y-124174669D01*
X129383190Y-124174670D01*
X129249278Y-124230137D01*
X129249274Y-124230139D01*
X129134276Y-124318381D01*
X129131677Y-124321769D01*
X129081251Y-124356424D01*
X129053136Y-124360500D01*
X126032664Y-124360500D01*
X125974473Y-124341593D01*
X125954123Y-124321769D01*
X125951523Y-124318381D01*
X125951521Y-124318380D01*
X125951521Y-124318379D01*
X125909504Y-124286138D01*
X125874850Y-124235714D01*
X125876452Y-124174549D01*
X125909504Y-124129056D01*
X125994521Y-124063821D01*
X126082761Y-123948825D01*
X126138230Y-123814909D01*
X126157150Y-123671200D01*
X126156593Y-123666973D01*
X126138230Y-123527491D01*
X126082761Y-123393575D01*
X125994521Y-123278579D01*
X125879525Y-123190339D01*
X125879521Y-123190337D01*
X125745609Y-123134870D01*
X125745608Y-123134869D01*
X125601900Y-123115950D01*
X125597661Y-123116508D01*
X125537501Y-123105355D01*
X125514739Y-123088358D01*
X124711917Y-122285536D01*
X123882101Y-121455719D01*
X123869225Y-121439862D01*
X123862737Y-121429931D01*
X123838608Y-121411151D01*
X123829419Y-121403037D01*
X123828607Y-121402225D01*
X123812525Y-121390743D01*
X123809261Y-121388310D01*
X123770426Y-121358083D01*
X123770424Y-121358082D01*
X123763977Y-121354593D01*
X123757370Y-121351363D01*
X123757366Y-121351360D01*
X123710209Y-121337320D01*
X123706315Y-121336072D01*
X123659787Y-121320099D01*
X123652560Y-121318893D01*
X123645255Y-121317983D01*
X123645254Y-121317983D01*
X123645252Y-121317983D01*
X123596124Y-121320015D01*
X123592033Y-121320100D01*
X121546066Y-121320100D01*
X121487875Y-121301193D01*
X121451911Y-121251693D01*
X121451911Y-121190507D01*
X121454595Y-121183228D01*
X121483930Y-121112409D01*
X121502850Y-120968700D01*
X121483930Y-120824991D01*
X121428461Y-120691075D01*
X121340221Y-120576079D01*
X121225225Y-120487839D01*
X121225221Y-120487837D01*
X121091309Y-120432370D01*
X121091308Y-120432369D01*
X120947600Y-120413450D01*
X120803891Y-120432369D01*
X120803890Y-120432370D01*
X120669978Y-120487837D01*
X120669974Y-120487839D01*
X120554976Y-120576081D01*
X120552377Y-120579469D01*
X120501951Y-120614124D01*
X120473836Y-120618200D01*
X117124490Y-120618200D01*
X117066299Y-120599293D01*
X117054486Y-120589204D01*
X116189486Y-119724204D01*
X116161709Y-119669687D01*
X116171280Y-119609255D01*
X116214545Y-119565990D01*
X116259490Y-119555200D01*
X134303036Y-119555200D01*
X134316711Y-119557432D01*
X134316883Y-119556206D01*
X134325964Y-119557472D01*
X134325965Y-119557473D01*
X134325965Y-119557472D01*
X134325966Y-119557473D01*
X134372842Y-119555306D01*
X134377414Y-119555200D01*
X134396042Y-119555200D01*
X134396044Y-119555200D01*
X134396148Y-119555180D01*
X134409771Y-119553598D01*
X134438192Y-119552285D01*
X134447176Y-119548317D01*
X134468977Y-119541565D01*
X134478633Y-119539761D01*
X134502818Y-119524786D01*
X134514928Y-119518401D01*
X134540965Y-119506906D01*
X134547909Y-119499960D01*
X134565801Y-119485789D01*
X134574152Y-119480619D01*
X134591289Y-119457923D01*
X134600282Y-119447587D01*
X139480275Y-114567596D01*
X139534792Y-114539819D01*
X139550279Y-114538600D01*
X140037188Y-114538600D01*
X140095379Y-114557507D01*
X140131343Y-114607007D01*
X140131343Y-114668193D01*
X140128652Y-114675485D01*
X140076170Y-114802190D01*
X140076169Y-114802191D01*
X140057250Y-114945899D01*
X140057250Y-114945900D01*
X140076169Y-115089608D01*
X140076170Y-115089609D01*
X140131188Y-115222438D01*
X140131639Y-115223525D01*
X140219879Y-115338521D01*
X140334875Y-115426761D01*
X140468791Y-115482230D01*
X140612500Y-115501150D01*
X140756209Y-115482230D01*
X140890125Y-115426761D01*
X141005121Y-115338521D01*
X141005885Y-115337524D01*
X141007723Y-115335131D01*
X141058149Y-115300476D01*
X141086264Y-115296400D01*
X143195281Y-115296400D01*
X143215596Y-115298507D01*
X143217506Y-115298907D01*
X143227215Y-115300943D01*
X143257562Y-115297159D01*
X143269807Y-115296400D01*
X143270943Y-115296400D01*
X143290421Y-115293149D01*
X143294452Y-115292561D01*
X143343293Y-115286473D01*
X143343296Y-115286471D01*
X143350329Y-115284377D01*
X143357275Y-115281992D01*
X143357281Y-115281992D01*
X143400555Y-115258571D01*
X143404179Y-115256707D01*
X143448382Y-115235099D01*
X143448382Y-115235098D01*
X143448384Y-115235098D01*
X143448385Y-115235096D01*
X143454370Y-115230823D01*
X143460155Y-115226320D01*
X143460155Y-115226319D01*
X143460158Y-115226318D01*
X143493479Y-115190120D01*
X143496264Y-115187216D01*
X144279206Y-114404274D01*
X151424500Y-114404274D01*
X151427353Y-114434694D01*
X151427355Y-114434703D01*
X151472207Y-114562883D01*
X151552845Y-114672144D01*
X151552847Y-114672146D01*
X151552850Y-114672150D01*
X151552853Y-114672152D01*
X151552855Y-114672154D01*
X151662116Y-114752792D01*
X151662117Y-114752792D01*
X151662118Y-114752793D01*
X151790301Y-114797646D01*
X151820725Y-114800499D01*
X151820727Y-114800500D01*
X151820734Y-114800500D01*
X153179273Y-114800500D01*
X153179273Y-114800499D01*
X153209699Y-114797646D01*
X153337882Y-114752793D01*
X153447150Y-114672150D01*
X153527793Y-114562882D01*
X153572646Y-114434699D01*
X153575499Y-114404273D01*
X153575500Y-114404273D01*
X153575500Y-113595727D01*
X153575499Y-113595725D01*
X153575372Y-113594369D01*
X153572646Y-113565301D01*
X153527793Y-113437118D01*
X153499868Y-113399281D01*
X153447154Y-113327855D01*
X153447152Y-113327853D01*
X153447150Y-113327850D01*
X153447146Y-113327847D01*
X153447144Y-113327845D01*
X153337883Y-113247207D01*
X153209703Y-113202355D01*
X153209694Y-113202353D01*
X153179274Y-113199500D01*
X153179266Y-113199500D01*
X151820734Y-113199500D01*
X151820725Y-113199500D01*
X151790305Y-113202353D01*
X151790296Y-113202355D01*
X151662116Y-113247207D01*
X151552855Y-113327845D01*
X151552845Y-113327855D01*
X151472207Y-113437116D01*
X151427355Y-113565296D01*
X151427353Y-113565305D01*
X151424500Y-113595725D01*
X151424500Y-114404274D01*
X144279206Y-114404274D01*
X144480984Y-114202496D01*
X144496834Y-114189626D01*
X144506769Y-114183137D01*
X144525551Y-114159003D01*
X144533677Y-114149804D01*
X144534476Y-114149006D01*
X144545975Y-114132898D01*
X144548409Y-114129636D01*
X144578617Y-114090826D01*
X144578618Y-114090822D01*
X144582122Y-114084350D01*
X144585339Y-114077767D01*
X144585338Y-114077767D01*
X144585340Y-114077766D01*
X144599385Y-114030590D01*
X144600621Y-114026728D01*
X144616600Y-113980188D01*
X144616600Y-113980184D01*
X144617809Y-113972941D01*
X144618718Y-113965652D01*
X144616685Y-113916499D01*
X144616600Y-113912408D01*
X144616600Y-113075418D01*
X144618707Y-113055102D01*
X144620581Y-113046163D01*
X144621143Y-113043485D01*
X144617360Y-113013136D01*
X144616600Y-113000892D01*
X144616600Y-112999759D01*
X144613349Y-112980278D01*
X144612759Y-112976230D01*
X144606673Y-112927407D01*
X144606672Y-112927405D01*
X144606672Y-112927403D01*
X144604579Y-112920375D01*
X144602191Y-112913416D01*
X144578787Y-112870171D01*
X144576913Y-112866530D01*
X144555299Y-112822317D01*
X144551048Y-112816362D01*
X144546519Y-112810543D01*
X144533211Y-112798292D01*
X144510321Y-112777220D01*
X144507394Y-112774412D01*
X143310901Y-111577919D01*
X143298025Y-111562062D01*
X143291537Y-111552131D01*
X143267408Y-111533351D01*
X143258219Y-111525237D01*
X143257407Y-111524425D01*
X143241325Y-111512943D01*
X143238061Y-111510510D01*
X143199226Y-111480283D01*
X143199224Y-111480282D01*
X143192777Y-111476793D01*
X143186170Y-111473563D01*
X143186166Y-111473560D01*
X143139009Y-111459520D01*
X143135115Y-111458272D01*
X143088587Y-111442299D01*
X143081360Y-111441093D01*
X143074055Y-111440183D01*
X143074054Y-111440183D01*
X143074052Y-111440183D01*
X143024924Y-111442215D01*
X143020833Y-111442300D01*
X143009864Y-111442300D01*
X142951673Y-111423393D01*
X142931323Y-111403569D01*
X142928723Y-111400181D01*
X142928721Y-111400180D01*
X142928721Y-111400179D01*
X142813725Y-111311939D01*
X142813721Y-111311937D01*
X142679809Y-111256470D01*
X142679808Y-111256469D01*
X142536100Y-111237550D01*
X142392391Y-111256469D01*
X142392390Y-111256470D01*
X142258478Y-111311937D01*
X142258474Y-111311939D01*
X142143481Y-111400177D01*
X142143477Y-111400181D01*
X142055239Y-111515174D01*
X142055237Y-111515178D01*
X141999770Y-111649090D01*
X141999769Y-111649091D01*
X141980850Y-111792799D01*
X141980850Y-111792800D01*
X141998393Y-111926054D01*
X141999770Y-111936509D01*
X142029099Y-112007316D01*
X142033898Y-112068312D01*
X142001929Y-112120481D01*
X141945400Y-112143895D01*
X141937634Y-112144200D01*
X136315279Y-112144200D01*
X136257088Y-112125293D01*
X136245275Y-112115204D01*
X135168046Y-111037975D01*
X135140269Y-110983458D01*
X135140058Y-110953882D01*
X135143147Y-110932400D01*
X135138632Y-110901000D01*
X135122665Y-110789943D01*
X135062877Y-110659027D01*
X134968628Y-110550257D01*
X134968627Y-110550256D01*
X134968626Y-110550255D01*
X134847557Y-110472449D01*
X134847554Y-110472447D01*
X134847553Y-110472447D01*
X134847550Y-110472446D01*
X134709464Y-110431900D01*
X134709461Y-110431900D01*
X134565539Y-110431900D01*
X134565535Y-110431900D01*
X134427449Y-110472446D01*
X134427442Y-110472449D01*
X134306373Y-110550255D01*
X134212122Y-110659028D01*
X134152334Y-110789943D01*
X134131853Y-110932397D01*
X134131853Y-110932402D01*
X134152334Y-111074856D01*
X134188625Y-111154321D01*
X134212123Y-111205773D01*
X134267188Y-111269322D01*
X134306373Y-111314544D01*
X134373309Y-111357561D01*
X134427447Y-111392353D01*
X134533161Y-111423393D01*
X134565535Y-111432899D01*
X134565536Y-111432899D01*
X134565539Y-111432900D01*
X134565541Y-111432900D01*
X134672021Y-111432900D01*
X134730212Y-111451807D01*
X134742025Y-111461896D01*
X135891236Y-112611107D01*
X135899337Y-112622347D01*
X135900316Y-112621609D01*
X135905844Y-112628930D01*
X135940524Y-112660545D01*
X135943832Y-112663703D01*
X135957003Y-112676874D01*
X135957095Y-112676937D01*
X135967842Y-112685450D01*
X135988864Y-112704614D01*
X135988865Y-112704614D01*
X135988867Y-112704616D01*
X135998030Y-112708166D01*
X136018216Y-112718805D01*
X136026319Y-112724356D01*
X136054015Y-112730870D01*
X136067093Y-112734920D01*
X136093627Y-112745200D01*
X136103452Y-112745200D01*
X136126116Y-112747829D01*
X136135681Y-112750079D01*
X136160758Y-112746580D01*
X136163854Y-112746149D01*
X136177531Y-112745200D01*
X142877521Y-112745200D01*
X142935712Y-112764107D01*
X142947525Y-112774196D01*
X142971621Y-112798292D01*
X142999398Y-112852809D01*
X142989827Y-112913241D01*
X142946562Y-112956506D01*
X142939503Y-112959760D01*
X142868575Y-112989138D01*
X142868574Y-112989139D01*
X142753576Y-113077381D01*
X142750977Y-113080769D01*
X142700551Y-113115424D01*
X142672436Y-113119500D01*
X139402819Y-113119500D01*
X139382504Y-113117393D01*
X139370885Y-113114957D01*
X139351344Y-113117393D01*
X139340538Y-113118740D01*
X139328293Y-113119500D01*
X139327160Y-113119500D01*
X139307682Y-113122750D01*
X139303636Y-113123339D01*
X139254813Y-113129425D01*
X139247738Y-113131532D01*
X139240824Y-113133906D01*
X139240820Y-113133907D01*
X139240819Y-113133908D01*
X139197539Y-113157329D01*
X139193915Y-113159194D01*
X139149721Y-113180799D01*
X139143734Y-113185073D01*
X139137942Y-113189582D01*
X139104620Y-113225777D01*
X139101790Y-113228727D01*
X134108814Y-118221704D01*
X134054297Y-118249481D01*
X134038810Y-118250700D01*
X131544387Y-118250700D01*
X131486196Y-118231793D01*
X131450232Y-118182293D01*
X131450232Y-118121107D01*
X131454334Y-118110574D01*
X131496265Y-118018758D01*
X131496265Y-118018756D01*
X131516747Y-117876302D01*
X131516747Y-117876297D01*
X131496265Y-117733843D01*
X131491204Y-117722762D01*
X131436477Y-117602927D01*
X131342228Y-117494157D01*
X131342227Y-117494156D01*
X131342226Y-117494155D01*
X131221157Y-117416349D01*
X131221154Y-117416347D01*
X131221153Y-117416347D01*
X131221150Y-117416346D01*
X131083064Y-117375800D01*
X131083061Y-117375800D01*
X130939139Y-117375800D01*
X130939135Y-117375800D01*
X130801049Y-117416346D01*
X130801042Y-117416349D01*
X130679976Y-117494154D01*
X130679975Y-117494155D01*
X130679972Y-117494157D01*
X130644590Y-117534991D01*
X130638836Y-117541631D01*
X130586440Y-117573227D01*
X130564017Y-117575800D01*
X128875079Y-117575800D01*
X128816888Y-117556893D01*
X128805075Y-117546804D01*
X127739346Y-116481075D01*
X127711569Y-116426558D01*
X127711358Y-116396982D01*
X127714447Y-116375500D01*
X127713428Y-116368414D01*
X127693965Y-116233043D01*
X127680821Y-116204262D01*
X127634177Y-116102127D01*
X127539928Y-115993357D01*
X127539927Y-115993356D01*
X127539926Y-115993355D01*
X127418857Y-115915549D01*
X127418854Y-115915547D01*
X127418853Y-115915547D01*
X127418850Y-115915546D01*
X127280764Y-115875000D01*
X127280761Y-115875000D01*
X127136839Y-115875000D01*
X127136835Y-115875000D01*
X126998749Y-115915546D01*
X126998742Y-115915549D01*
X126877673Y-115993355D01*
X126783422Y-116102128D01*
X126723634Y-116233043D01*
X126703153Y-116375497D01*
X126703153Y-116375502D01*
X126724642Y-116524966D01*
X126722287Y-116525304D01*
X126720850Y-116575590D01*
X126683485Y-116624041D01*
X126624778Y-116641278D01*
X126567152Y-116620715D01*
X126557604Y-116612322D01*
X124858301Y-114913019D01*
X124845425Y-114897162D01*
X124838937Y-114887231D01*
X124836565Y-114885385D01*
X124814804Y-114868448D01*
X124805619Y-114860337D01*
X124804807Y-114859525D01*
X124788725Y-114848043D01*
X124785461Y-114845610D01*
X124746626Y-114815383D01*
X124746624Y-114815382D01*
X124740177Y-114811893D01*
X124733570Y-114808663D01*
X124733566Y-114808660D01*
X124686409Y-114794620D01*
X124682515Y-114793372D01*
X124635987Y-114777399D01*
X124628760Y-114776193D01*
X124621455Y-114775283D01*
X124621454Y-114775283D01*
X124621452Y-114775283D01*
X124572324Y-114777315D01*
X124568233Y-114777400D01*
X120619540Y-114777400D01*
X120561349Y-114758493D01*
X120541000Y-114738669D01*
X120538323Y-114735180D01*
X120538318Y-114735176D01*
X120423329Y-114646942D01*
X120423324Y-114646938D01*
X120346888Y-114615278D01*
X120300363Y-114575541D01*
X120286079Y-114516047D01*
X120309494Y-114459519D01*
X120314757Y-114453823D01*
X124550986Y-110217596D01*
X124605503Y-110189819D01*
X124620990Y-110188600D01*
X139168836Y-110188600D01*
X139227027Y-110207507D01*
X139247377Y-110227331D01*
X139249976Y-110230718D01*
X139249977Y-110230719D01*
X139249979Y-110230721D01*
X139364975Y-110318961D01*
X139498891Y-110374430D01*
X139642600Y-110393350D01*
X139786309Y-110374430D01*
X139920225Y-110318961D01*
X140035221Y-110230721D01*
X140123461Y-110115725D01*
X140178930Y-109981809D01*
X140197850Y-109838100D01*
X140178930Y-109694391D01*
X140123461Y-109560475D01*
X140035221Y-109445479D01*
X139920225Y-109357239D01*
X139920221Y-109357237D01*
X139786309Y-109301770D01*
X139786308Y-109301769D01*
X139642600Y-109282850D01*
X139498891Y-109301769D01*
X139498890Y-109301770D01*
X139364978Y-109357237D01*
X139364974Y-109357239D01*
X139249976Y-109445481D01*
X139247377Y-109448869D01*
X139196951Y-109483524D01*
X139168836Y-109487600D01*
X124481413Y-109487600D01*
X124461098Y-109485493D01*
X124449485Y-109483058D01*
X124419143Y-109486840D01*
X124406899Y-109487600D01*
X124405759Y-109487600D01*
X124386281Y-109490850D01*
X124382236Y-109491439D01*
X124333408Y-109497526D01*
X124326375Y-109499619D01*
X124319416Y-109502008D01*
X124276161Y-109525417D01*
X124272524Y-109527289D01*
X124228320Y-109548899D01*
X124222342Y-109553166D01*
X124216544Y-109557680D01*
X124183231Y-109593865D01*
X124180401Y-109596815D01*
X119218818Y-114558398D01*
X119202965Y-114571271D01*
X119193035Y-114577759D01*
X119193032Y-114577761D01*
X119174248Y-114601895D01*
X119166137Y-114611080D01*
X119165327Y-114611889D01*
X119165319Y-114611898D01*
X119153833Y-114627986D01*
X119151390Y-114631263D01*
X119121182Y-114670074D01*
X119117681Y-114676543D01*
X119114459Y-114683134D01*
X119100418Y-114730296D01*
X119099170Y-114734190D01*
X119083200Y-114780710D01*
X119081993Y-114787943D01*
X119081083Y-114795247D01*
X119083115Y-114844375D01*
X119083200Y-114848466D01*
X119083200Y-115905271D01*
X119064293Y-115963462D01*
X119014793Y-115999426D01*
X118953607Y-115999426D01*
X118946316Y-115996736D01*
X118929638Y-115989828D01*
X118860209Y-115961070D01*
X118860206Y-115961069D01*
X118860208Y-115961069D01*
X118716500Y-115942150D01*
X118572791Y-115961069D01*
X118572790Y-115961070D01*
X118438878Y-116016537D01*
X118438874Y-116016539D01*
X118323881Y-116104777D01*
X118323877Y-116104781D01*
X118235639Y-116219774D01*
X118235637Y-116219778D01*
X118180170Y-116353690D01*
X118180169Y-116353691D01*
X118161250Y-116497399D01*
X118161250Y-116497400D01*
X118180169Y-116641108D01*
X118180170Y-116641109D01*
X118235639Y-116775025D01*
X118323879Y-116890021D01*
X118438875Y-116978261D01*
X118572791Y-117033730D01*
X118716500Y-117052650D01*
X118860209Y-117033730D01*
X118994125Y-116978261D01*
X119109121Y-116890021D01*
X119109885Y-116889024D01*
X119111723Y-116886631D01*
X119162149Y-116851976D01*
X119190264Y-116847900D01*
X119375212Y-116847900D01*
X119415114Y-116847900D01*
X119423288Y-116848238D01*
X119463044Y-116851532D01*
X119465421Y-116850929D01*
X119489725Y-116847900D01*
X121497636Y-116847900D01*
X121555827Y-116866807D01*
X121576177Y-116886631D01*
X121578776Y-116890018D01*
X121578777Y-116890019D01*
X121578779Y-116890021D01*
X121693775Y-116978261D01*
X121827691Y-117033730D01*
X121971400Y-117052650D01*
X122115109Y-117033730D01*
X122249025Y-116978261D01*
X122364021Y-116890021D01*
X122452261Y-116775025D01*
X122507730Y-116641109D01*
X122526650Y-116497400D01*
X122507730Y-116353691D01*
X122452261Y-116219775D01*
X122364021Y-116104779D01*
X122249025Y-116016539D01*
X122249021Y-116016537D01*
X122115109Y-115961070D01*
X122115108Y-115961069D01*
X121971400Y-115942150D01*
X121827691Y-115961069D01*
X121827690Y-115961070D01*
X121693778Y-116016537D01*
X121693774Y-116016539D01*
X121578776Y-116104781D01*
X121576177Y-116108169D01*
X121525751Y-116142824D01*
X121497636Y-116146900D01*
X119883200Y-116146900D01*
X119825009Y-116127993D01*
X119789045Y-116078493D01*
X119784200Y-116047900D01*
X119784200Y-115722082D01*
X119803107Y-115663891D01*
X119852607Y-115627927D01*
X119913793Y-115627927D01*
X119921082Y-115630616D01*
X120001991Y-115664130D01*
X120145700Y-115683050D01*
X120289409Y-115664130D01*
X120423325Y-115608661D01*
X120538321Y-115520421D01*
X120540843Y-115517133D01*
X120591267Y-115482477D01*
X120619386Y-115478400D01*
X124391310Y-115478400D01*
X124449501Y-115497307D01*
X124461314Y-115507396D01*
X126642158Y-117688240D01*
X126669935Y-117742757D01*
X126670307Y-117771163D01*
X126669750Y-117775394D01*
X126669750Y-117775400D01*
X126688669Y-117919108D01*
X126688670Y-117919109D01*
X126743859Y-118052351D01*
X126744139Y-118053025D01*
X126744141Y-118053028D01*
X126744142Y-118053029D01*
X126773610Y-118091433D01*
X126794034Y-118149108D01*
X126776657Y-118207774D01*
X126728115Y-118245021D01*
X126695068Y-118250700D01*
X119014664Y-118250700D01*
X118956473Y-118231793D01*
X118936123Y-118211969D01*
X118933523Y-118208581D01*
X118933521Y-118208580D01*
X118933521Y-118208579D01*
X118818525Y-118120339D01*
X118818521Y-118120337D01*
X118684609Y-118064870D01*
X118684608Y-118064869D01*
X118540900Y-118045950D01*
X118540895Y-118045950D01*
X118536663Y-118046507D01*
X118476503Y-118035355D01*
X118453740Y-118018358D01*
X117197301Y-116761919D01*
X117184425Y-116746062D01*
X117177937Y-116736131D01*
X117153808Y-116717351D01*
X117144619Y-116709237D01*
X117143807Y-116708425D01*
X117127725Y-116696943D01*
X117124461Y-116694510D01*
X117085626Y-116664283D01*
X117085624Y-116664282D01*
X117079177Y-116660793D01*
X117072570Y-116657563D01*
X117072566Y-116657560D01*
X117025409Y-116643520D01*
X117021515Y-116642272D01*
X116974987Y-116626299D01*
X116967760Y-116625093D01*
X116960455Y-116624183D01*
X116960454Y-116624183D01*
X116960452Y-116624183D01*
X116911324Y-116626215D01*
X116907233Y-116626300D01*
X115139590Y-116626300D01*
X115081399Y-116607393D01*
X115069586Y-116597304D01*
X114397386Y-115925104D01*
X114369609Y-115870587D01*
X114379180Y-115810155D01*
X114422445Y-115766890D01*
X114467390Y-115756100D01*
X114530359Y-115756100D01*
X114530361Y-115756100D01*
X114668453Y-115715553D01*
X114789528Y-115637743D01*
X114830664Y-115590268D01*
X114883060Y-115558673D01*
X114905483Y-115556100D01*
X117454336Y-115556100D01*
X117468011Y-115558332D01*
X117468183Y-115557106D01*
X117477264Y-115558372D01*
X117477265Y-115558373D01*
X117477265Y-115558372D01*
X117477266Y-115558373D01*
X117524142Y-115556206D01*
X117528714Y-115556100D01*
X117547342Y-115556100D01*
X117547344Y-115556100D01*
X117547448Y-115556080D01*
X117561071Y-115554498D01*
X117589492Y-115553185D01*
X117598476Y-115549217D01*
X117620277Y-115542465D01*
X117629933Y-115540661D01*
X117654118Y-115525686D01*
X117666228Y-115519301D01*
X117692265Y-115507806D01*
X117699209Y-115500860D01*
X117717101Y-115486689D01*
X117725452Y-115481519D01*
X117742589Y-115458823D01*
X117751582Y-115448487D01*
X124770475Y-108429596D01*
X124824992Y-108401819D01*
X124840479Y-108400600D01*
X133083817Y-108400600D01*
X133142008Y-108419507D01*
X133158633Y-108434767D01*
X133199772Y-108482243D01*
X133320847Y-108560053D01*
X133427303Y-108591311D01*
X133458935Y-108600599D01*
X133458936Y-108600599D01*
X133458939Y-108600600D01*
X133458941Y-108600600D01*
X133602859Y-108600600D01*
X133602861Y-108600600D01*
X133740953Y-108560053D01*
X133862028Y-108482243D01*
X133956277Y-108373473D01*
X134016065Y-108242557D01*
X134036547Y-108100100D01*
X134016065Y-107957643D01*
X133976784Y-107871630D01*
X133955912Y-107825927D01*
X133948937Y-107765140D01*
X133979023Y-107711863D01*
X134034679Y-107686445D01*
X134045965Y-107685800D01*
X134926236Y-107685800D01*
X134984427Y-107704707D01*
X135004777Y-107724531D01*
X135007376Y-107727918D01*
X135007377Y-107727919D01*
X135007379Y-107727921D01*
X135122375Y-107816161D01*
X135256291Y-107871630D01*
X135400000Y-107890550D01*
X135543709Y-107871630D01*
X135677625Y-107816161D01*
X135792621Y-107727921D01*
X135880861Y-107612925D01*
X135936330Y-107479009D01*
X135955250Y-107335300D01*
X135936330Y-107191591D01*
X135880861Y-107057675D01*
X135792621Y-106942679D01*
X135677625Y-106854439D01*
X135677621Y-106854437D01*
X135543709Y-106798970D01*
X135543708Y-106798969D01*
X135400000Y-106780050D01*
X135256291Y-106798969D01*
X135256290Y-106798970D01*
X135122378Y-106854437D01*
X135122374Y-106854439D01*
X135007376Y-106942681D01*
X135004777Y-106946069D01*
X134954351Y-106980724D01*
X134926236Y-106984800D01*
X131115427Y-106984800D01*
X131057236Y-106965893D01*
X131036885Y-106946068D01*
X130966575Y-106854439D01*
X130960621Y-106846679D01*
X130845625Y-106758439D01*
X130845621Y-106758437D01*
X130711709Y-106702970D01*
X130711708Y-106702969D01*
X130568000Y-106684050D01*
X130424291Y-106702969D01*
X130424290Y-106702970D01*
X130290378Y-106758437D01*
X130290374Y-106758439D01*
X130175381Y-106846677D01*
X130175377Y-106846681D01*
X130087139Y-106961674D01*
X130087137Y-106961678D01*
X130031670Y-107095590D01*
X130031669Y-107095591D01*
X130012750Y-107239299D01*
X130012750Y-107239300D01*
X130031669Y-107383008D01*
X130031670Y-107383009D01*
X130087139Y-107516925D01*
X130175379Y-107631921D01*
X130175380Y-107631921D01*
X130179329Y-107637068D01*
X130177908Y-107638158D01*
X130201832Y-107685113D01*
X130192261Y-107745545D01*
X130148996Y-107788810D01*
X130104051Y-107799600D01*
X124740164Y-107799600D01*
X124726488Y-107797367D01*
X124726317Y-107798594D01*
X124717233Y-107797326D01*
X124670358Y-107799494D01*
X124665786Y-107799600D01*
X124647152Y-107799600D01*
X124647029Y-107799623D01*
X124633419Y-107801201D01*
X124605010Y-107802514D01*
X124605006Y-107802515D01*
X124596015Y-107806485D01*
X124574227Y-107813232D01*
X124564570Y-107815037D01*
X124556016Y-107818352D01*
X124555525Y-107817086D01*
X124505581Y-107829317D01*
X124448947Y-107806159D01*
X124416742Y-107754135D01*
X124421266Y-107693117D01*
X124442895Y-107660585D01*
X127062971Y-105040510D01*
X129590866Y-105040510D01*
X129619695Y-105179248D01*
X129619695Y-105179250D01*
X129619696Y-105179253D01*
X129619697Y-105179254D01*
X129684892Y-105305074D01*
X129781615Y-105408639D01*
X129902693Y-105482268D01*
X130039146Y-105520500D01*
X130039147Y-105520500D01*
X130145258Y-105520500D01*
X130145264Y-105520500D01*
X130250388Y-105506051D01*
X130380364Y-105449595D01*
X130490288Y-105360164D01*
X130572008Y-105244393D01*
X130619463Y-105110868D01*
X130624276Y-105040510D01*
X135370866Y-105040510D01*
X135399695Y-105179248D01*
X135399695Y-105179250D01*
X135399696Y-105179253D01*
X135399697Y-105179254D01*
X135464892Y-105305074D01*
X135561615Y-105408639D01*
X135682693Y-105482268D01*
X135819146Y-105520500D01*
X135819147Y-105520500D01*
X135925258Y-105520500D01*
X135925264Y-105520500D01*
X136030388Y-105506051D01*
X136160364Y-105449595D01*
X136270288Y-105360164D01*
X136352008Y-105244393D01*
X136399463Y-105110868D01*
X136409134Y-104969490D01*
X136394513Y-104899131D01*
X136380304Y-104830751D01*
X136380304Y-104830749D01*
X136380303Y-104830747D01*
X136380303Y-104830746D01*
X136315108Y-104704926D01*
X136218385Y-104601361D01*
X136097307Y-104527732D01*
X136097306Y-104527731D01*
X136097305Y-104527731D01*
X135960854Y-104489500D01*
X135854736Y-104489500D01*
X135749613Y-104503948D01*
X135749609Y-104503949D01*
X135619636Y-104560404D01*
X135619635Y-104560405D01*
X135509712Y-104649836D01*
X135509708Y-104649839D01*
X135427992Y-104765606D01*
X135380536Y-104899131D01*
X135380536Y-104899132D01*
X135370866Y-105040510D01*
X130624276Y-105040510D01*
X130629134Y-104969490D01*
X130614513Y-104899131D01*
X130600304Y-104830751D01*
X130600304Y-104830749D01*
X130600303Y-104830747D01*
X130600303Y-104830746D01*
X130535108Y-104704926D01*
X130438385Y-104601361D01*
X130317307Y-104527732D01*
X130317306Y-104527731D01*
X130317305Y-104527731D01*
X130180854Y-104489500D01*
X130074736Y-104489500D01*
X129969613Y-104503948D01*
X129969609Y-104503949D01*
X129839636Y-104560404D01*
X129839635Y-104560405D01*
X129729712Y-104649836D01*
X129729708Y-104649839D01*
X129647992Y-104765606D01*
X129600536Y-104899131D01*
X129600536Y-104899132D01*
X129590866Y-105040510D01*
X127062971Y-105040510D01*
X129147086Y-102956396D01*
X129201603Y-102928619D01*
X129217090Y-102927400D01*
X138379336Y-102927400D01*
X138437527Y-102946307D01*
X138457877Y-102966131D01*
X138460476Y-102969518D01*
X138460477Y-102969519D01*
X138460479Y-102969521D01*
X138575475Y-103057761D01*
X138709391Y-103113230D01*
X138853100Y-103132150D01*
X138996809Y-103113230D01*
X139130725Y-103057761D01*
X139245721Y-102969521D01*
X139333961Y-102854525D01*
X139389430Y-102720609D01*
X139408350Y-102576900D01*
X139389430Y-102433191D01*
X139333961Y-102299275D01*
X139245721Y-102184279D01*
X139130725Y-102096039D01*
X139130721Y-102096037D01*
X138996809Y-102040570D01*
X138996808Y-102040569D01*
X138853100Y-102021650D01*
X138709391Y-102040569D01*
X138709390Y-102040570D01*
X138575478Y-102096037D01*
X138575474Y-102096039D01*
X138460476Y-102184281D01*
X138457877Y-102187669D01*
X138407451Y-102222324D01*
X138379336Y-102226400D01*
X129077513Y-102226400D01*
X129057198Y-102224293D01*
X129045585Y-102221858D01*
X129015243Y-102225640D01*
X129002999Y-102226400D01*
X129001859Y-102226400D01*
X128982381Y-102229650D01*
X128978336Y-102230239D01*
X128929508Y-102236326D01*
X128922475Y-102238419D01*
X128915516Y-102240808D01*
X128872261Y-102264217D01*
X128868624Y-102266089D01*
X128824420Y-102287699D01*
X128818442Y-102291966D01*
X128812644Y-102296480D01*
X128779331Y-102332665D01*
X128776501Y-102335615D01*
X117301858Y-113810258D01*
X117247341Y-113838035D01*
X117218933Y-113838407D01*
X117214702Y-113837850D01*
X117214700Y-113837850D01*
X117070991Y-113856769D01*
X117070990Y-113856770D01*
X116937078Y-113912237D01*
X116937074Y-113912239D01*
X116822081Y-114000477D01*
X116822077Y-114000481D01*
X116733839Y-114115474D01*
X116733837Y-114115478D01*
X116678370Y-114249390D01*
X116678369Y-114249391D01*
X116659450Y-114393099D01*
X116659450Y-114393100D01*
X116678369Y-114536808D01*
X116678370Y-114536809D01*
X116732308Y-114667030D01*
X116733839Y-114670725D01*
X116822079Y-114785721D01*
X116822083Y-114785724D01*
X116822455Y-114786096D01*
X116822628Y-114786436D01*
X116826029Y-114790868D01*
X116825207Y-114791498D01*
X116850232Y-114840613D01*
X116840661Y-114901045D01*
X116797396Y-114944310D01*
X116752451Y-114955100D01*
X114905483Y-114955100D01*
X114847292Y-114936193D01*
X114830664Y-114920931D01*
X114789528Y-114873457D01*
X114746182Y-114845600D01*
X114668457Y-114795649D01*
X114668454Y-114795647D01*
X114668453Y-114795647D01*
X114667091Y-114795247D01*
X114530364Y-114755100D01*
X114530361Y-114755100D01*
X114393289Y-114755100D01*
X114335098Y-114736193D01*
X114299134Y-114686693D01*
X114299134Y-114625507D01*
X114323285Y-114586096D01*
X114399185Y-114510196D01*
X114453702Y-114482419D01*
X114469189Y-114481200D01*
X114766436Y-114481200D01*
X114824627Y-114500107D01*
X114844977Y-114519931D01*
X114847576Y-114523318D01*
X114847577Y-114523319D01*
X114847579Y-114523321D01*
X114962575Y-114611561D01*
X115096491Y-114667030D01*
X115240200Y-114685950D01*
X115383909Y-114667030D01*
X115517825Y-114611561D01*
X115632821Y-114523321D01*
X115721061Y-114408325D01*
X115776530Y-114274409D01*
X115795450Y-114130700D01*
X115793445Y-114115474D01*
X115776530Y-113986991D01*
X115721061Y-113853075D01*
X115632821Y-113738079D01*
X115517825Y-113649839D01*
X115517821Y-113649837D01*
X115383909Y-113594370D01*
X115383908Y-113594369D01*
X115240200Y-113575450D01*
X115096491Y-113594369D01*
X115096490Y-113594370D01*
X114962578Y-113649837D01*
X114962574Y-113649839D01*
X114847576Y-113738081D01*
X114844977Y-113741469D01*
X114794551Y-113776124D01*
X114766436Y-113780200D01*
X114401789Y-113780200D01*
X114343598Y-113761293D01*
X114307634Y-113711793D01*
X114307634Y-113650607D01*
X114331785Y-113611196D01*
X114762182Y-113180799D01*
X115212841Y-112730139D01*
X115267356Y-112702364D01*
X115295769Y-112701993D01*
X115300000Y-112702550D01*
X115443709Y-112683630D01*
X115577625Y-112628161D01*
X115692621Y-112539921D01*
X115780861Y-112424925D01*
X115836330Y-112291009D01*
X115855250Y-112147300D01*
X115852432Y-112125899D01*
X115836330Y-112003591D01*
X115780861Y-111869675D01*
X115692621Y-111754679D01*
X115577625Y-111666439D01*
X115577621Y-111666437D01*
X115443709Y-111610970D01*
X115443708Y-111610969D01*
X115300000Y-111592050D01*
X115156291Y-111610969D01*
X115156290Y-111610970D01*
X115022378Y-111666437D01*
X115022374Y-111666439D01*
X114907381Y-111754677D01*
X114907377Y-111754681D01*
X114819139Y-111869674D01*
X114819137Y-111869678D01*
X114763670Y-112003590D01*
X114763669Y-112003591D01*
X114744750Y-112147299D01*
X114744750Y-112147303D01*
X114745307Y-112151535D01*
X114734156Y-112211695D01*
X114717158Y-112234459D01*
X112291304Y-114660314D01*
X112236787Y-114688091D01*
X112176355Y-114678520D01*
X112133090Y-114635255D01*
X112122300Y-114590310D01*
X112122300Y-113440288D01*
X112141207Y-113382097D01*
X112151290Y-113370290D01*
X112812840Y-112708739D01*
X112867355Y-112680964D01*
X112895769Y-112680593D01*
X112899998Y-112681150D01*
X112900000Y-112681150D01*
X113043709Y-112662230D01*
X113177625Y-112606761D01*
X113292621Y-112518521D01*
X113380861Y-112403525D01*
X113436330Y-112269609D01*
X113455250Y-112125900D01*
X113447946Y-112070425D01*
X113436330Y-111982191D01*
X113380861Y-111848275D01*
X113292621Y-111733279D01*
X113177625Y-111645039D01*
X113177621Y-111645037D01*
X113095374Y-111610970D01*
X113043709Y-111589570D01*
X113023171Y-111586866D01*
X112973771Y-111580362D01*
X112918546Y-111554020D01*
X112889352Y-111500249D01*
X112897338Y-111439588D01*
X112939456Y-111395206D01*
X112948790Y-111390753D01*
X113028925Y-111357561D01*
X113143921Y-111269321D01*
X113232161Y-111154325D01*
X113287630Y-111020409D01*
X113306550Y-110876700D01*
X113287630Y-110732991D01*
X113232161Y-110599075D01*
X113143921Y-110484079D01*
X113028925Y-110395839D01*
X113028921Y-110395837D01*
X112895009Y-110340370D01*
X112895008Y-110340369D01*
X112751300Y-110321450D01*
X112607591Y-110340369D01*
X112607590Y-110340370D01*
X112473678Y-110395837D01*
X112473674Y-110395839D01*
X112358681Y-110484077D01*
X112358677Y-110484081D01*
X112270439Y-110599074D01*
X112270437Y-110599078D01*
X112214970Y-110732990D01*
X112214970Y-110732991D01*
X112195559Y-110880426D01*
X112169218Y-110935651D01*
X112167410Y-110937507D01*
X107940518Y-115164398D01*
X107924665Y-115177271D01*
X107914735Y-115183759D01*
X107914732Y-115183761D01*
X107895948Y-115207895D01*
X107887837Y-115217080D01*
X107887027Y-115217889D01*
X107887019Y-115217898D01*
X107875533Y-115233986D01*
X107873090Y-115237263D01*
X107842882Y-115276074D01*
X107839381Y-115282543D01*
X107836159Y-115289134D01*
X107822118Y-115336296D01*
X107820870Y-115340190D01*
X107804900Y-115386710D01*
X107803693Y-115393943D01*
X107802783Y-115401247D01*
X107804815Y-115450375D01*
X107804900Y-115454466D01*
X107804900Y-128675181D01*
X107802793Y-128695496D01*
X107800357Y-128707113D01*
X100300500Y-128707113D01*
X100300500Y-127099000D01*
X100319407Y-127040809D01*
X100368907Y-127004845D01*
X100399500Y-127000000D01*
X106299999Y-127000000D01*
X106300000Y-127000000D01*
X106300000Y-111000000D01*
X106299999Y-111000000D01*
X100399500Y-111000000D01*
X100341309Y-110981093D01*
X100305345Y-110931593D01*
X100300500Y-110901000D01*
X100300500Y-103791815D01*
X100319407Y-103733624D01*
X100368907Y-103697660D01*
X100430093Y-103697660D01*
X100461691Y-103714788D01*
X100668877Y-103882080D01*
X100668884Y-103882085D01*
X100918710Y-104035909D01*
X100918711Y-104035909D01*
X100918717Y-104035913D01*
X101186073Y-104156765D01*
X101466613Y-104242679D01*
X101755793Y-104292264D01*
X101837861Y-104295749D01*
X101895195Y-104317108D01*
X101922854Y-104351705D01*
X101945030Y-104397755D01*
X101945032Y-104397757D01*
X101945033Y-104397760D01*
X102096205Y-104619489D01*
X102096207Y-104619491D01*
X102096210Y-104619495D01*
X102278740Y-104816214D01*
X102488538Y-104983522D01*
X102488547Y-104983529D01*
X102587241Y-105040510D01*
X102720940Y-105117702D01*
X102720946Y-105117705D01*
X102720953Y-105117709D01*
X102970761Y-105215751D01*
X103232391Y-105275467D01*
X103304036Y-105280835D01*
X103432989Y-105290500D01*
X103432998Y-105290500D01*
X103567011Y-105290500D01*
X103687366Y-105281480D01*
X103767609Y-105275467D01*
X104029239Y-105215751D01*
X104279047Y-105117709D01*
X104511453Y-104983529D01*
X104721264Y-104816210D01*
X104903795Y-104619489D01*
X105054967Y-104397761D01*
X105171403Y-104155977D01*
X105250504Y-103899541D01*
X105290500Y-103634179D01*
X105290500Y-103365821D01*
X105250504Y-103100459D01*
X105171403Y-102844023D01*
X105054967Y-102602240D01*
X104903795Y-102380511D01*
X104862137Y-102335615D01*
X104770010Y-102236326D01*
X104721264Y-102183790D01*
X104721262Y-102183788D01*
X104721259Y-102183785D01*
X104511461Y-102016477D01*
X104511458Y-102016475D01*
X104511453Y-102016471D01*
X104400488Y-101952405D01*
X104345207Y-101920488D01*
X104304266Y-101875019D01*
X104295796Y-101838956D01*
X104292264Y-101755793D01*
X104242679Y-101466613D01*
X104156765Y-101186073D01*
X104035913Y-100918717D01*
X103882081Y-100668878D01*
X103714789Y-100461692D01*
X103692943Y-100404542D01*
X103708863Y-100345464D01*
X103756467Y-100307026D01*
X103791815Y-100300500D01*
X154208185Y-100300500D01*
X154266376Y-100319407D01*
G37*
%TD.AperFunction*%
%TD*%
M02*
