%TF.GenerationSoftware,KiCad,Pcbnew,7.0.11+dfsg-1build4*%
%TF.CreationDate,2026-07-24T16:54:44+00:00*%
%TF.ProjectId,smart-register,736d6172-742d-4726-9567-69737465722e,rev?*%
%TF.SameCoordinates,Original*%
%TF.FileFunction,Soldermask,Top*%
%TF.FilePolarity,Negative*%
%FSLAX46Y46*%
G04 Gerber Fmt 4.6, Leading zero omitted, Abs format (unit mm)*
G04 Created by KiCad (PCBNEW 7.0.11+dfsg-1build4) date 2026-07-24 16:54:44*
%MOMM*%
%LPD*%
G01*
G04 APERTURE LIST*
G04 Aperture macros list*
%AMRoundRect*
0 Rectangle with rounded corners*
0 $1 Rounding radius*
0 $2 $3 $4 $5 $6 $7 $8 $9 X,Y pos of 4 corners*
0 Add a 4 corners polygon primitive as box body*
4,1,4,$2,$3,$4,$5,$6,$7,$8,$9,$2,$3,0*
0 Add four circle primitives for the rounded corners*
1,1,$1+$1,$2,$3*
1,1,$1+$1,$4,$5*
1,1,$1+$1,$6,$7*
1,1,$1+$1,$8,$9*
0 Add four rect primitives between the rounded corners*
20,1,$1+$1,$2,$3,$4,$5,0*
20,1,$1+$1,$4,$5,$6,$7,0*
20,1,$1+$1,$6,$7,$8,$9,0*
20,1,$1+$1,$8,$9,$2,$3,0*%
%AMFreePoly0*
4,1,11,1.015000,1.170000,0.435000,0.575000,0.435000,-0.575000,1.015000,-1.170000,1.015000,-1.945000,0.125000,-1.945000,-0.435000,-1.395000,-0.435000,1.395000,0.125000,1.945000,1.015000,1.945000,1.015000,1.170000,1.015000,1.170000,$1*%
%AMFreePoly1*
4,1,11,0.435000,1.395000,0.435000,-1.395000,-0.125000,-1.945000,-1.015000,-1.945000,-1.015000,-1.170000,-0.435000,-0.575000,-0.435000,0.575000,-1.015000,1.170000,-1.015000,1.945000,-0.125000,1.945000,0.435000,1.395000,0.435000,1.395000,$1*%
%AMFreePoly2*
4,1,6,0.725000,-0.725000,-0.725000,-0.725000,-0.725000,0.125000,-0.125000,0.725000,0.725000,0.725000,0.725000,-0.725000,0.725000,-0.725000,$1*%
G04 Aperture macros list end*
%ADD10RoundRect,0.200000X0.275000X-0.200000X0.275000X0.200000X-0.275000X0.200000X-0.275000X-0.200000X0*%
%ADD11RoundRect,0.200000X-0.200000X-0.275000X0.200000X-0.275000X0.200000X0.275000X-0.200000X0.275000X0*%
%ADD12FreePoly0,0.000000*%
%ADD13FreePoly1,0.000000*%
%ADD14RoundRect,0.225000X-0.225000X-0.250000X0.225000X-0.250000X0.225000X0.250000X-0.225000X0.250000X0*%
%ADD15RoundRect,0.100000X-0.225000X-0.100000X0.225000X-0.100000X0.225000X0.100000X-0.225000X0.100000X0*%
%ADD16RoundRect,0.218750X-0.218750X-0.256250X0.218750X-0.256250X0.218750X0.256250X-0.218750X0.256250X0*%
%ADD17RoundRect,0.062500X-0.187500X-0.062500X0.187500X-0.062500X0.187500X0.062500X-0.187500X0.062500X0*%
%ADD18R,0.900000X1.600000*%
%ADD19RoundRect,0.250000X0.625000X-0.350000X0.625000X0.350000X-0.625000X0.350000X-0.625000X-0.350000X0*%
%ADD20O,1.750000X1.200000*%
%ADD21RoundRect,0.250000X0.650000X-0.325000X0.650000X0.325000X-0.650000X0.325000X-0.650000X-0.325000X0*%
%ADD22RoundRect,0.150000X-0.587500X-0.150000X0.587500X-0.150000X0.587500X0.150000X-0.587500X0.150000X0*%
%ADD23R,1.700000X1.700000*%
%ADD24O,1.700000X1.700000*%
%ADD25RoundRect,0.225000X0.250000X-0.225000X0.250000X0.225000X-0.250000X0.225000X-0.250000X-0.225000X0*%
%ADD26R,0.900000X1.000000*%
%ADD27RoundRect,0.237500X-0.912500X-0.237500X0.912500X-0.237500X0.912500X0.237500X-0.912500X0.237500X0*%
%ADD28C,3.200000*%
%ADD29C,0.650000*%
%ADD30RoundRect,0.150000X0.150000X0.425000X-0.150000X0.425000X-0.150000X-0.425000X0.150000X-0.425000X0*%
%ADD31RoundRect,0.075000X0.075000X0.500000X-0.075000X0.500000X-0.075000X-0.500000X0.075000X-0.500000X0*%
%ADD32O,1.000000X2.100000*%
%ADD33O,1.000000X1.800000*%
%ADD34RoundRect,0.150000X-0.512500X-0.150000X0.512500X-0.150000X0.512500X0.150000X-0.512500X0.150000X0*%
%ADD35R,1.050000X0.450000*%
%ADD36R,3.400000X5.000000*%
%ADD37RoundRect,0.250000X0.475000X-0.250000X0.475000X0.250000X-0.475000X0.250000X-0.475000X-0.250000X0*%
%ADD38RoundRect,0.250000X-1.000000X-0.650000X1.000000X-0.650000X1.000000X0.650000X-1.000000X0.650000X0*%
%ADD39RoundRect,0.250000X-0.350000X-0.625000X0.350000X-0.625000X0.350000X0.625000X-0.350000X0.625000X0*%
%ADD40O,1.200000X1.750000*%
%ADD41RoundRect,0.093750X-0.093750X-0.106250X0.093750X-0.106250X0.093750X0.106250X-0.093750X0.106250X0*%
%ADD42R,1.000000X1.600000*%
%ADD43R,0.400000X0.800000*%
%ADD44R,0.800000X0.400000*%
%ADD45FreePoly2,90.000000*%
%ADD46R,1.450000X1.450000*%
%ADD47R,0.700000X0.700000*%
G04 APERTURE END LIST*
D10*
%TO.C,R1*%
X120500000Y-104825000D03*
X120500000Y-103175000D03*
%TD*%
%TO.C,R4*%
X123000000Y-118425000D03*
X123000000Y-116775000D03*
%TD*%
D11*
%TO.C,R15*%
X118175000Y-127500000D03*
X119825000Y-127500000D03*
%TD*%
D12*
%TO.C,L1*%
X129735000Y-113500000D03*
D13*
X133265000Y-113500000D03*
%TD*%
D14*
%TO.C,C6*%
X118225000Y-131500000D03*
X119775000Y-131500000D03*
%TD*%
D15*
%TO.C,U5*%
X119550000Y-118350000D03*
X119550000Y-119000000D03*
X119550000Y-119650000D03*
X121450000Y-119650000D03*
X121450000Y-119000000D03*
X121450000Y-118350000D03*
%TD*%
D16*
%TO.C,D2*%
X111212500Y-131800000D03*
X112787500Y-131800000D03*
%TD*%
D10*
%TO.C,R3*%
X116500000Y-104825000D03*
X116500000Y-103175000D03*
%TD*%
D17*
%TO.C,U2*%
X125550000Y-112250000D03*
X125550000Y-112750000D03*
X125550000Y-113250000D03*
X125550000Y-113750000D03*
X127450000Y-113750000D03*
X127450000Y-113250000D03*
X127450000Y-112750000D03*
X127450000Y-112250000D03*
D18*
X126500000Y-113000000D03*
%TD*%
D19*
%TO.C,J2*%
X152500000Y-114000000D03*
D20*
X152500000Y-112000000D03*
%TD*%
D10*
%TO.C,R2*%
X124500000Y-104825000D03*
X124500000Y-103175000D03*
%TD*%
D21*
%TO.C,C5*%
X149400000Y-114975000D03*
X149400000Y-112025000D03*
%TD*%
D19*
%TO.C,J3*%
X151000000Y-127000000D03*
D20*
X151000000Y-125000000D03*
X151000000Y-123000000D03*
X151000000Y-121000000D03*
%TD*%
D22*
%TO.C,Q2*%
X111062500Y-103050000D03*
X111062500Y-104950000D03*
X112937500Y-104000000D03*
%TD*%
D10*
%TO.C,R8*%
X137500000Y-121825000D03*
X137500000Y-120175000D03*
%TD*%
D14*
%TO.C,C9*%
X143225000Y-117500000D03*
X144775000Y-117500000D03*
%TD*%
D23*
%TO.C,J5*%
X121200000Y-135000000D03*
D24*
X123740000Y-135000000D03*
X126280000Y-135000000D03*
X128820000Y-135000000D03*
X131360000Y-135000000D03*
%TD*%
D25*
%TO.C,C14*%
X138500000Y-109675000D03*
X138500000Y-108125000D03*
%TD*%
D10*
%TO.C,R12*%
X134000000Y-126825000D03*
X134000000Y-125175000D03*
%TD*%
D23*
%TO.C,J6*%
X109500000Y-135000000D03*
D24*
X112040000Y-135000000D03*
X114580000Y-135000000D03*
X117120000Y-135000000D03*
%TD*%
D21*
%TO.C,C4*%
X147000000Y-114975000D03*
X147000000Y-112025000D03*
%TD*%
%TO.C,C1*%
X144500000Y-112175000D03*
X144500000Y-109225000D03*
%TD*%
D22*
%TO.C,Q3*%
X111062500Y-108050000D03*
X111062500Y-109950000D03*
X112937500Y-109000000D03*
%TD*%
D26*
%TO.C,SW2*%
X145650000Y-101700000D03*
X149750000Y-101700000D03*
X145650000Y-103300000D03*
X149750000Y-103300000D03*
%TD*%
D25*
%TO.C,C11*%
X118300000Y-123275000D03*
X118300000Y-121725000D03*
%TD*%
D10*
%TO.C,R6*%
X132000000Y-118425000D03*
X132000000Y-116775000D03*
%TD*%
%TO.C,R13*%
X136000000Y-126825000D03*
X136000000Y-125175000D03*
%TD*%
D22*
%TO.C,Q1*%
X147962500Y-105550000D03*
X147962500Y-107450000D03*
X149837500Y-106500000D03*
%TD*%
D10*
%TO.C,R9*%
X137500000Y-130125000D03*
X137500000Y-128475000D03*
%TD*%
%TO.C,R10*%
X139500000Y-131825000D03*
X139500000Y-130175000D03*
%TD*%
D14*
%TO.C,C7*%
X113725000Y-127500000D03*
X115275000Y-127500000D03*
%TD*%
D27*
%TO.C,U7*%
X121900000Y-123190000D03*
X121900000Y-125730000D03*
X121900000Y-128270000D03*
X121900000Y-130810000D03*
X131100000Y-130810000D03*
X131100000Y-128270000D03*
X131100000Y-125730000D03*
X131100000Y-123190000D03*
%TD*%
D14*
%TO.C,C12*%
X127225000Y-119500000D03*
X128775000Y-119500000D03*
%TD*%
D28*
%TO.C,H1*%
X103500000Y-103500000D03*
%TD*%
%TO.C,H4*%
X154500000Y-134500000D03*
%TD*%
D11*
%TO.C,R16*%
X118175000Y-129500000D03*
X119825000Y-129500000D03*
%TD*%
D25*
%TO.C,C15*%
X141500000Y-111275000D03*
X141500000Y-109725000D03*
%TD*%
D29*
%TO.C,J1*%
X135890000Y-105005000D03*
X130110000Y-105005000D03*
D30*
X136200000Y-106080000D03*
X135400000Y-106080000D03*
D31*
X134250000Y-106080000D03*
X133250000Y-106080000D03*
X132750000Y-106080000D03*
X131750000Y-106080000D03*
D30*
X130600000Y-106080000D03*
X129800000Y-106080000D03*
X129800000Y-106080000D03*
X130600000Y-106080000D03*
D31*
X131250000Y-106080000D03*
X132250000Y-106080000D03*
X133750000Y-106080000D03*
X134750000Y-106080000D03*
D30*
X135400000Y-106080000D03*
X136200000Y-106080000D03*
D32*
X137320000Y-105505000D03*
D33*
X137320000Y-101325000D03*
D32*
X128680000Y-105505000D03*
D33*
X128680000Y-101325000D03*
%TD*%
D10*
%TO.C,R17*%
X126500000Y-109725000D03*
X126500000Y-108075000D03*
%TD*%
D28*
%TO.C,H2*%
X154500000Y-103500000D03*
%TD*%
D34*
%TO.C,U6*%
X132362500Y-108250000D03*
X132362500Y-109200000D03*
X132362500Y-110150000D03*
X134637500Y-110150000D03*
X134637500Y-109200000D03*
X134637500Y-108250000D03*
%TD*%
D28*
%TO.C,H3*%
X103500000Y-134500000D03*
%TD*%
D10*
%TO.C,R5*%
X125000000Y-118425000D03*
X125000000Y-116775000D03*
%TD*%
%TO.C,R7*%
X134500000Y-118425000D03*
X134500000Y-116775000D03*
%TD*%
D25*
%TO.C,C16*%
X124500000Y-109275000D03*
X124500000Y-107725000D03*
%TD*%
D35*
%TO.C,U3*%
X139725000Y-120725000D03*
X139725000Y-121375000D03*
X139725000Y-122025000D03*
X139725000Y-122675000D03*
X139725000Y-123325000D03*
X139725000Y-123975000D03*
X139725000Y-124625000D03*
X139725000Y-125275000D03*
X145275000Y-125275000D03*
X145275000Y-124625000D03*
X145275000Y-123975000D03*
X145275000Y-123325000D03*
X145275000Y-122675000D03*
X145275000Y-122025000D03*
X145275000Y-121375000D03*
X145275000Y-120725000D03*
D36*
X142500000Y-123000000D03*
%TD*%
D37*
%TO.C,C3*%
X135500000Y-113950000D03*
X135500000Y-112050000D03*
%TD*%
D11*
%TO.C,R14*%
X111175000Y-129800000D03*
X112825000Y-129800000D03*
%TD*%
D14*
%TO.C,C8*%
X139225000Y-117500000D03*
X140775000Y-117500000D03*
%TD*%
D38*
%TO.C,D1*%
X141200000Y-106300000D03*
X145200000Y-106300000D03*
%TD*%
D10*
%TO.C,R18*%
X128800000Y-109725000D03*
X128800000Y-108075000D03*
%TD*%
D37*
%TO.C,C2*%
X122500000Y-113950000D03*
X122500000Y-112050000D03*
%TD*%
D39*
%TO.C,J4*%
X136000000Y-134800000D03*
D40*
X138000000Y-134800000D03*
X140000000Y-134800000D03*
%TD*%
D41*
%TO.C,U4*%
X140612500Y-112850000D03*
X140612500Y-113500000D03*
X140612500Y-114150000D03*
X142387500Y-114150000D03*
X142387500Y-113500000D03*
X142387500Y-112850000D03*
D42*
X141500000Y-113500000D03*
%TD*%
D10*
%TO.C,R11*%
X141800000Y-131825000D03*
X141800000Y-130175000D03*
%TD*%
D26*
%TO.C,SW1*%
X139950000Y-101700000D03*
X144050000Y-101700000D03*
X139950000Y-103300000D03*
X144050000Y-103300000D03*
%TD*%
D25*
%TO.C,C13*%
X138000000Y-126775000D03*
X138000000Y-125225000D03*
%TD*%
D43*
%TO.C,U1*%
X107300000Y-124900000D03*
X108100000Y-124900000D03*
X108900000Y-124900000D03*
X109700000Y-124900000D03*
X110500000Y-124900000D03*
X111300000Y-124900000D03*
X112100000Y-124900000D03*
X112900000Y-124900000D03*
X113700000Y-124900000D03*
X114500000Y-124900000D03*
X115300000Y-124900000D03*
D44*
X116200000Y-123800000D03*
X116200000Y-123000000D03*
X116200000Y-122200000D03*
X116200000Y-121400000D03*
X116200000Y-120600000D03*
X116200000Y-119800000D03*
X116200000Y-119000000D03*
X116200000Y-118200000D03*
X116200000Y-117400000D03*
X116200000Y-116600000D03*
X116200000Y-115800000D03*
X116200000Y-115000000D03*
X116200000Y-114200000D03*
D43*
X115300000Y-113100000D03*
X114500000Y-113100000D03*
X113700000Y-113100000D03*
X112900000Y-113100000D03*
X112100000Y-113100000D03*
X111300000Y-113100000D03*
X110500000Y-113100000D03*
X109700000Y-113100000D03*
X108900000Y-113100000D03*
X108100000Y-113100000D03*
X107300000Y-113100000D03*
D44*
X106400000Y-114200000D03*
X106400000Y-115000000D03*
X106400000Y-115800000D03*
X106400000Y-116600000D03*
X106400000Y-117400000D03*
X106400000Y-118200000D03*
X106400000Y-119000000D03*
X106400000Y-119800000D03*
X106400000Y-120600000D03*
X106400000Y-121400000D03*
X106400000Y-122200000D03*
X106400000Y-123000000D03*
X106400000Y-123800000D03*
D45*
X109325000Y-120975000D03*
D46*
X111300000Y-120975000D03*
X113275000Y-120975000D03*
X109325000Y-119000000D03*
X111300000Y-119000000D03*
X113275000Y-119000000D03*
X109325000Y-117025000D03*
X111300000Y-117025000D03*
X113275000Y-117025000D03*
D47*
X106350000Y-113050000D03*
X116250000Y-113050000D03*
X116250000Y-124950000D03*
X106350000Y-124950000D03*
%TD*%
M02*
