%TF.GenerationSoftware,KiCad,Pcbnew,7.0.11+dfsg-1build4*%
%TF.CreationDate,2026-07-24T16:54:44+00:00*%
%TF.ProjectId,smart-register,736d6172-742d-4726-9567-69737465722e,rev?*%
%TF.SameCoordinates,Original*%
%TF.FileFunction,Legend,Bot*%
%TF.FilePolarity,Positive*%
%FSLAX46Y46*%
G04 Gerber Fmt 4.6, Leading zero omitted, Abs format (unit mm)*
G04 Created by KiCad (PCBNEW 7.0.11+dfsg-1build4) date 2026-07-24 16:54:44*
%MOMM*%
%LPD*%
G01*
G04 APERTURE LIST*
G04 Aperture macros list*
%AMRoundRect*
0 Rectangle with rounded corners*
0 $1 Rounding radius*
0 $2 $3 $4 $5 $6 $7 $8 $9 X,Y pos of 4 corners*
0 Add a 4 corners polygon primitive as box body*
4,1,4,$2,$3,$4,$5,$6,$7,$8,$9,$2,$3,0*
0 Add four circle primitives for the rounded corners*
1,1,$1+$1,$2,$3*
1,1,$1+$1,$4,$5*
1,1,$1+$1,$6,$7*
1,1,$1+$1,$8,$9*
0 Add four rect primitives between the rounded corners*
20,1,$1+$1,$2,$3,$4,$5,0*
20,1,$1+$1,$4,$5,$6,$7,0*
20,1,$1+$1,$6,$7,$8,$9,0*
20,1,$1+$1,$8,$9,$2,$3,0*%
G04 Aperture macros list end*
%ADD10C,0.150000*%
%ADD11C,0.120000*%
%ADD12RoundRect,0.250000X0.625000X-0.350000X0.625000X0.350000X-0.625000X0.350000X-0.625000X-0.350000X0*%
%ADD13O,1.750000X1.200000*%
%ADD14R,1.700000X1.700000*%
%ADD15O,1.700000X1.700000*%
%ADD16C,3.200000*%
%ADD17C,0.650000*%
%ADD18O,1.000000X2.100000*%
%ADD19O,1.000000X1.800000*%
%ADD20RoundRect,0.250000X-0.350000X-0.625000X0.350000X-0.625000X0.350000X0.625000X-0.350000X0.625000X0*%
%ADD21O,1.200000X1.750000*%
%ADD22RoundRect,0.225000X0.250000X-0.225000X0.250000X0.225000X-0.250000X0.225000X-0.250000X-0.225000X0*%
G04 APERTURE END LIST*
D10*
X147289580Y-120857142D02*
X147337200Y-120809523D01*
X147337200Y-120809523D02*
X147384819Y-120666666D01*
X147384819Y-120666666D02*
X147384819Y-120571428D01*
X147384819Y-120571428D02*
X147337200Y-120428571D01*
X147337200Y-120428571D02*
X147241961Y-120333333D01*
X147241961Y-120333333D02*
X147146723Y-120285714D01*
X147146723Y-120285714D02*
X146956247Y-120238095D01*
X146956247Y-120238095D02*
X146813390Y-120238095D01*
X146813390Y-120238095D02*
X146622914Y-120285714D01*
X146622914Y-120285714D02*
X146527676Y-120333333D01*
X146527676Y-120333333D02*
X146432438Y-120428571D01*
X146432438Y-120428571D02*
X146384819Y-120571428D01*
X146384819Y-120571428D02*
X146384819Y-120666666D01*
X146384819Y-120666666D02*
X146432438Y-120809523D01*
X146432438Y-120809523D02*
X146480057Y-120857142D01*
X147384819Y-121809523D02*
X147384819Y-121238095D01*
X147384819Y-121523809D02*
X146384819Y-121523809D01*
X146384819Y-121523809D02*
X146527676Y-121428571D01*
X146527676Y-121428571D02*
X146622914Y-121333333D01*
X146622914Y-121333333D02*
X146670533Y-121238095D01*
X146384819Y-122428571D02*
X146384819Y-122523809D01*
X146384819Y-122523809D02*
X146432438Y-122619047D01*
X146432438Y-122619047D02*
X146480057Y-122666666D01*
X146480057Y-122666666D02*
X146575295Y-122714285D01*
X146575295Y-122714285D02*
X146765771Y-122761904D01*
X146765771Y-122761904D02*
X147003866Y-122761904D01*
X147003866Y-122761904D02*
X147194342Y-122714285D01*
X147194342Y-122714285D02*
X147289580Y-122666666D01*
X147289580Y-122666666D02*
X147337200Y-122619047D01*
X147337200Y-122619047D02*
X147384819Y-122523809D01*
X147384819Y-122523809D02*
X147384819Y-122428571D01*
X147384819Y-122428571D02*
X147337200Y-122333333D01*
X147337200Y-122333333D02*
X147289580Y-122285714D01*
X147289580Y-122285714D02*
X147194342Y-122238095D01*
X147194342Y-122238095D02*
X147003866Y-122190476D01*
X147003866Y-122190476D02*
X146765771Y-122190476D01*
X146765771Y-122190476D02*
X146575295Y-122238095D01*
X146575295Y-122238095D02*
X146480057Y-122285714D01*
X146480057Y-122285714D02*
X146432438Y-122333333D01*
X146432438Y-122333333D02*
X146384819Y-122428571D01*
D11*
%TO.C,C10*%
X144990000Y-121640580D02*
X144990000Y-121359420D01*
X146010000Y-121640580D02*
X146010000Y-121359420D01*
%TD*%
%LPC*%
D12*
%TO.C,J2*%
X152500000Y-114000000D03*
D13*
X152500000Y-112000000D03*
%TD*%
D12*
%TO.C,J3*%
X151000000Y-127000000D03*
D13*
X151000000Y-125000000D03*
X151000000Y-123000000D03*
X151000000Y-121000000D03*
%TD*%
D14*
%TO.C,J5*%
X121200000Y-135000000D03*
D15*
X123740000Y-135000000D03*
X126280000Y-135000000D03*
X128820000Y-135000000D03*
X131360000Y-135000000D03*
%TD*%
D14*
%TO.C,J6*%
X109500000Y-135000000D03*
D15*
X112040000Y-135000000D03*
X114580000Y-135000000D03*
X117120000Y-135000000D03*
%TD*%
D16*
%TO.C,H1*%
X103500000Y-103500000D03*
%TD*%
%TO.C,H4*%
X154500000Y-134500000D03*
%TD*%
D17*
%TO.C,J1*%
X135890000Y-105005000D03*
X130110000Y-105005000D03*
D18*
X137320000Y-105505000D03*
D19*
X137320000Y-101325000D03*
D18*
X128680000Y-105505000D03*
D19*
X128680000Y-101325000D03*
%TD*%
D16*
%TO.C,H2*%
X154500000Y-103500000D03*
%TD*%
%TO.C,H3*%
X103500000Y-134500000D03*
%TD*%
D20*
%TO.C,J4*%
X136000000Y-134800000D03*
D21*
X138000000Y-134800000D03*
X140000000Y-134800000D03*
%TD*%
D22*
%TO.C,C10*%
X145500000Y-122275000D03*
X145500000Y-120725000D03*
%TD*%
%LPD*%
M02*
